<svg width="17" height="17" viewBox="0 0 17 17" fill="none" xmlns="http://www.w3.org/2000/svg">
<path d="M5.185 15.8667H11.8717C12.6367 15.8667 13.2317 15.2433 13.2317 14.5067V5.29833H13.8267C13.9967 5.29833 14.11 5.185 14.11 5.015V4.36333C14.11 3.76833 13.6283 3.315 13.0617 3.315H10.6533V2.57833C10.6533 2.09666 10.2567 1.7 9.775 1.7H7.25333C6.77167 1.7 6.375 2.09666 6.375 2.57833V3.315H3.96667C3.37167 3.315 2.91833 3.79666 2.91833 4.36333V5.015C2.91833 5.185 3.03167 5.29833 3.20167 5.29833H3.79667V14.5067C3.79667 15.2433 4.42 15.8667 5.185 15.8667ZM12.665 14.5067C12.665 14.96 12.2967 15.3 11.8717 15.3H5.185C4.73167 15.3 4.39167 14.9317 4.39167 14.5067V5.29833H12.6933V14.5067H12.665ZM6.94167 2.57833C6.94167 2.40833 7.08333 2.26666 7.25333 2.26666H9.775C9.945 2.26666 10.0867 2.40833 10.0867 2.57833V3.315H6.97V2.57833H6.94167ZM3.485 4.36333C3.485 4.08 3.71167 3.88166 3.96667 3.88166H13.0333C13.3167 3.88166 13.515 4.10833 13.515 4.36333V4.73166H3.485V4.36333Z" fill="white"/>
<path d="M10.7383 13.94C10.9083 13.94 11.0217 13.8267 11.0217 13.6567V6.91334C11.0217 6.74334 10.9083 6.63 10.7383 6.63C10.5683 6.63 10.455 6.74334 10.455 6.91334V13.6567C10.455 13.8267 10.5967 13.94 10.7383 13.94ZM8.52832 13.94C8.69832 13.94 8.81165 13.8267 8.81165 13.6567V6.91334C8.81165 6.74334 8.69832 6.63 8.52832 6.63C8.35832 6.63 8.24499 6.74334 8.24499 6.91334V13.6567C8.24499 13.8267 8.35832 13.94 8.52832 13.94ZM6.28999 13.94C6.45999 13.94 6.57332 13.8267 6.57332 13.6567V6.91334C6.57332 6.74334 6.45999 6.63 6.28999 6.63C6.11999 6.63 6.00665 6.74334 6.00665 6.91334V13.6567C6.00665 13.8267 6.11999 13.94 6.28999 13.94Z" fill="white"/>
</svg>
