<svg width="13" height="13" viewBox="0 0 13 13" fill="none" xmlns="http://www.w3.org/2000/svg">
<path d="M11.4606 0.585786C12.2417 1.36684 12.2417 2.63316 11.4606 3.41421L4.07415 10.8007C3.75375 11.1211 3.3523 11.3484 2.91272 11.4583L0.621723 12.031C0.255533 12.1226 -0.0761638 11.7909 0.0153838 11.4247L0.588134 9.13367C0.698029 8.69409 0.925326 8.29264 1.24572 7.97225L8.63218 0.585786C9.41323 -0.195262 10.6796 -0.195262 11.4606 0.585786ZM7.925 2.707L1.95283 8.67935C1.76059 8.87159 1.62421 9.11246 1.55828 9.37621L1.18764 10.8588L2.67019 10.4881C2.93394 10.4222 3.1748 10.2858 3.36704 10.0936L9.339 4.121L7.925 2.707ZM9.33929 1.29289L8.632 2L10.046 3.414L10.7535 2.70711C11.144 2.31658 11.144 1.68342 10.7535 1.29289C10.363 0.902369 9.72981 0.902369 9.33929 1.29289Z" fill="white"/>
</svg>
