<?xml version="1.0" encoding="iso-8859-1"?>
<!-- Uploaded to: SVG Repo, www.svgrepo.com, Generator: SVG Repo Mixer Tools -->
<svg fill="#ffffff" height="13" width="13" version="1.1" id="Layer_1" xmlns="http://www.w3.org/2000/svg" xmlns:xlink="http://www.w3.org/1999/xlink" 
	 viewBox="0 0 501.545 501.545" xml:space="preserve">
<g>
	<g>
		<path d="M434.239,66.133c-8.533-8.533-21.333-8.533-29.867,0l-50.133,50.133c-8.533,8.533-8.533,21.333,0,29.867
			c4.267,4.267,9.6,6.4,14.933,6.4c5.333,0,10.667-2.133,14.933-6.4L434.239,96C442.772,87.466,442.772,74.666,434.239,66.133z"/>
	</g>
</g>
<g>
	<g>
		<path d="M282.772,218.667c-8.533-8.533-21.333-8.533-29.867,0l-246.4,246.4c-8.533,8.533-8.533,21.333,0,29.867
			c5.333,5.333,20.267,11.733,28.8,0l247.467-246.4C291.305,240,291.305,227.2,282.772,218.667z"/>
	</g>
</g>
<g>
	<g>
		<path d="M435.306,359.467l-50.133-50.133c-8.533-8.533-21.333-8.533-29.867,0s-8.533,21.333,0,29.867l50.133,50.133
			c4.267,4.267,9.6,6.4,14.933,6.4c5.333,0,10.667-2.133,14.933-6.4C443.839,380.8,443.839,368,435.306,359.467z"/>
	</g>
</g>
<g>
	<g>
		<path d="M192.106,116.267l-50.133-50.133c-8.533-8.533-21.333-8.533-29.867,0s-8.533,21.333,0,29.867l50.133,50.133
			c4.267,4.267,9.6,6.4,14.933,6.4c5.333,0,10.667-2.133,14.933-6.4C200.639,137.6,200.639,124.8,192.106,116.267z"/>
	</g>
</g>
<g>
	<g>
		<path d="M480.106,206.933h-70.4c-11.733,0-21.333,9.6-21.333,21.333s9.6,21.333,21.333,21.333h70.4
			c11.733,0,21.333-9.6,21.333-21.333S491.839,206.933,480.106,206.933z"/>
	</g>
</g>
<g>
	<g>
		<path d="M136.639,205.867h-70.4c-11.733,0-21.333,9.6-21.333,21.333s9.6,21.333,21.333,21.333h70.4
			c11.733,0,21.333-8.533,21.333-21.333C157.972,215.466,148.372,205.867,136.639,205.867z"/>
	</g>
</g>
<g>
	<g>
		<path d="M273.172,343.467c-11.733,0-21.333,9.6-21.333,21.333v70.4c0,11.733,9.6,21.333,21.333,21.333s21.333-9.6,21.333-21.333
			v-70.4C294.506,353.067,284.906,343.467,273.172,343.467z"/>
	</g>
</g>
<g>
	<g>
		<path d="M273.172,0c-11.733,0-21.333,9.6-21.333,21.333v70.4c0,11.733,9.6,21.333,21.333,21.333s21.333-9.6,21.333-21.333v-70.4
			C294.506,9.6,284.906,0,273.172,0z"/>
	</g>
</g>
</svg>