<svg width="333" height="333" viewBox="0 0 333 333" fill="none" xmlns="http://www.w3.org/2000/svg">
<path d="M166.833 258.741C224.029 258.741 270.396 212.374 270.396 155.178C270.396 97.9817 224.029 51.615 166.833 51.615C109.637 51.615 63.27 97.9817 63.27 155.178C63.27 212.374 109.637 258.741 166.833 258.741Z" fill="#A8CF7B"/>
<path d="M168.174 127.751C170.409 129.986 174.646 129.372 177.638 126.381C180.63 123.389 181.243 119.152 179.008 116.917C176.774 114.682 172.537 115.296 169.545 118.287C166.553 121.279 165.939 125.516 168.174 127.751Z" fill="#5C832F"/>
<path d="M196.969 154.264C196.745 154.339 196.528 154.423 196.307 154.504C196.528 154.423 196.747 154.339 196.969 154.264Z" fill="#5C832F"/>
<path d="M141.703 155.737C139.561 154.798 137.38 153.984 135.153 153.403C132.815 152.845 130.315 152.523 127.643 152.473H113.384V159.236H128.284C134.217 159.236 140.15 162.328 146.433 165.602C150.135 167.533 153.906 169.494 157.807 170.864C153.989 164.81 148.764 159.147 141.703 155.737Z" fill="#5C832F"/>
<path d="M207.524 152.473C203.661 152.545 200.147 153.178 196.969 154.264C196.747 154.341 196.528 154.423 196.307 154.504C187.728 157.647 181.583 164.005 177.234 170.85C181.11 169.483 184.853 167.528 188.527 165.608C194.795 162.331 200.714 159.236 206.668 159.236H221.622V152.473H207.524Z" fill="#5C832F"/>
<path d="M168.184 154.905C170.419 157.14 174.656 156.526 177.647 153.534C180.639 150.541 181.252 146.304 179.016 144.07C176.781 141.835 172.544 142.449 169.553 145.442C166.562 148.434 165.949 152.671 168.184 154.905Z" fill="#5C832F"/>
<path d="M166.478 140.102C168.713 137.867 168.099 133.63 165.107 130.639C162.114 127.647 157.877 127.034 155.643 129.27C153.408 131.505 154.022 135.742 157.015 138.733C160.007 141.724 164.244 142.337 166.478 140.102Z" fill="#5C832F"/>
<path d="M167.509 199.813C160.059 199.813 152.821 196.23 145.822 192.763C139.177 189.473 132.901 186.366 126.932 186.366H113.384V179.603H126.932C134.483 179.603 141.774 183.213 148.823 186.704C155.416 189.968 161.642 193.05 167.509 193.05C173.339 193.05 179.493 189.987 186.01 186.743C193.062 183.232 200.354 179.603 208.022 179.603C208.047 179.603 208.072 179.603 208.097 179.603H221.622V186.366H208.087C208.068 186.366 208.05 186.366 208.031 186.366C201.943 186.366 195.666 189.49 189.022 192.797C182.093 196.246 174.928 199.813 167.509 199.813Z" fill="#5C832F"/>
<path d="M167.509 186.366C160.059 186.366 152.821 182.783 145.822 179.316C139.177 176.025 132.901 172.918 126.932 172.918H113.384V166.156H126.932C134.483 166.156 141.774 169.766 148.823 173.257C155.416 176.52 161.642 179.603 167.509 179.603C173.339 179.603 179.493 176.539 186.01 173.296C193.062 169.784 200.354 166.156 208.022 166.156C208.047 166.156 208.072 166.156 208.097 166.156H221.622V172.918H208.087C208.068 172.918 208.05 172.918 208.032 172.918C201.943 172.918 195.667 176.043 189.022 179.35C182.093 182.799 174.928 186.366 167.509 186.366Z" fill="#5C832F"/>
<path d="M114.325 274.099H111.342L111.495 275.205V281.985H113.966C116.197 281.985 117.622 280.24 117.622 277.995C117.622 275.325 115.99 274.099 114.325 274.099ZM114.112 274.965C115.478 274.965 116.457 276.377 116.457 278.068C116.457 279.733 115.478 281.125 114.112 281.125H112.574V274.965H114.112Z" fill="black" fill-opacity="0.98"/>
<path d="M121.425 275.911C119.587 275.911 118.774 277.456 118.774 279.147C118.774 280.633 119.674 282.144 121.245 282.144C122.73 282.144 123.583 281.319 123.583 281.319L123.41 280.406C123.41 280.406 122.551 281.219 121.532 281.219C120.366 281.219 119.867 280.12 119.84 279.041H123.183L123.463 278.728C123.436 277.982 123.29 275.911 121.425 275.911ZM121.279 276.69C122.104 276.69 122.331 277.649 122.371 278.268H119.9C120.066 277.409 120.466 276.69 121.279 276.69Z" fill="black" fill-opacity="0.98"/>
<path d="M124.708 281.445C124.708 281.445 125.281 282.144 126.507 282.144C127.779 282.144 128.591 281.385 128.591 280.32C128.591 278.388 125.667 278.668 125.667 277.383C125.667 276.99 126.06 276.677 126.553 276.677C126.999 276.677 127.619 276.796 128.085 277.276L128.378 276.317C128.078 276.137 127.572 275.911 126.646 275.911C125.521 275.911 124.648 276.59 124.648 277.669C124.648 279.46 127.572 279.4 127.572 280.479C127.572 281.079 127.093 281.279 126.52 281.279C125.501 281.279 124.815 280.479 124.815 280.479L124.708 281.445Z" fill="black" fill-opacity="0.98"/>
<path d="M130.529 277.622C130.529 277.622 131.128 276.723 132.234 276.723C132.727 276.723 133.133 277.049 133.133 278.008V278.441C131.155 278.441 129.763 279.327 129.763 280.659C129.763 281.545 130.496 282.144 131.308 282.144C132.054 282.144 132.893 281.651 133.22 281.159C133.226 281.685 133.566 282.144 133.566 282.144L134.678 281.984C134.678 281.984 134.139 281.352 134.139 280.632V277.456C134.139 276.33 133.28 275.924 132.341 275.924C130.762 275.924 129.99 276.843 129.99 276.843L130.529 277.622ZM131.755 281.278C131.122 281.278 130.842 280.859 130.842 280.479C130.842 279.254 132.82 279.221 133.133 279.207V280.539C132.893 280.812 132.281 281.278 131.755 281.278Z" fill="black" fill-opacity="0.98"/>
<path d="M140.013 276.244C139.8 276.017 139.534 275.911 139.261 275.911C138.168 275.911 137.616 276.87 137.389 277.276V275.957L136.224 276.09L136.383 277.189V281.985H137.509L137.389 281.085V278.928C137.389 277.862 138.228 276.976 138.994 276.976C139.161 276.976 139.414 277.063 139.607 277.229L140.013 276.244Z" fill="black" fill-opacity="0.98"/>
<path d="M144.668 276.244C144.449 276.017 144.189 275.911 143.909 275.911C142.824 275.911 142.271 276.87 142.044 277.276V275.957L140.879 276.09L141.032 277.189V281.985H142.164L142.044 281.085V278.928C142.044 277.862 142.884 276.976 143.649 276.976C143.816 276.976 144.069 277.063 144.262 277.229L144.668 276.244Z" fill="black" fill-opacity="0.98"/>
<path d="M145.015 279.134C145.015 279.327 145.075 282.144 147.545 282.144C149.39 282.144 150.469 280.633 150.469 278.908C150.469 276.87 149.39 275.911 147.952 275.911C146.127 275.911 145.015 277.276 145.015 279.134ZM146.12 279.028C146.12 277.769 146.726 276.71 147.739 276.71C148.744 276.71 149.364 277.769 149.364 279.028C149.364 280.286 148.744 281.339 147.739 281.339C146.726 281.339 146.12 280.286 146.12 279.028Z" fill="black" fill-opacity="0.98"/>
<path d="M153.2 272.934L152.041 273.067L152.194 274.172V281.985H153.32L153.2 281.085V272.934Z" fill="black" fill-opacity="0.98"/>
<path d="M156.49 272.934L155.324 273.067L155.477 274.172V281.985H156.61L156.49 281.085V272.934Z" fill="black" fill-opacity="0.98"/>
<path d="M158.981 277.622C158.981 277.622 159.58 276.723 160.686 276.723C161.172 276.723 161.585 277.049 161.585 278.008V278.441C159.607 278.441 158.215 279.327 158.215 280.659C158.215 281.545 158.947 282.144 159.76 282.144C160.506 282.144 161.345 281.651 161.665 281.159C161.678 281.685 162.011 282.144 162.011 282.144L163.13 281.984C163.13 281.984 162.59 281.352 162.59 280.632V277.456C162.59 276.33 161.725 275.924 160.792 275.924C159.207 275.924 158.441 276.843 158.441 276.843L158.981 277.622ZM160.206 281.278C159.567 281.278 159.294 280.859 159.294 280.479C159.294 279.254 161.272 279.221 161.585 279.207V280.539C161.345 280.812 160.732 281.278 160.206 281.278Z" fill="black" fill-opacity="0.98"/>
<path d="M169.677 281.984L169.557 281.112V277.336C169.557 276.377 168.778 275.924 167.985 275.924C167.193 275.924 166.34 276.303 165.841 276.856V275.957L164.675 276.09L164.828 277.189V281.984H165.961L165.841 281.085V277.742C165.841 277.742 166.414 276.856 167.672 276.856C168.418 276.856 168.545 277.396 168.545 278.535V281.984H169.677Z" fill="black" fill-opacity="0.98"/>
<path d="M176.11 272.934L174.945 273.067L175.104 274.172V276.004C174.765 275.971 174.432 275.931 174.165 275.931C172.44 275.931 171.242 277.442 171.242 279.167C171.242 281.085 172.247 282.144 173.4 282.144C173.979 282.144 174.612 281.858 175.184 281.265C175.244 281.745 175.537 282.144 175.537 282.144L176.65 281.985C176.65 281.985 176.11 281.352 176.11 280.633V272.934ZM173.786 281.325C173.007 281.325 172.361 280.439 172.361 279.061C172.361 277.802 173.087 276.71 173.979 276.71C174.445 276.71 175.124 276.796 175.104 276.796V280.526C174.698 281.052 174.205 281.325 173.786 281.325Z" fill="black" fill-opacity="0.98"/>
<path d="M177.789 279.134C177.789 279.327 177.849 282.144 180.319 282.144C182.164 282.144 183.243 280.633 183.243 278.908C183.243 276.87 182.164 275.911 180.726 275.911C178.901 275.911 177.789 277.276 177.789 279.134ZM178.894 279.028C178.894 277.769 179.5 276.71 180.513 276.71C181.518 276.71 182.138 277.769 182.138 279.028C182.138 280.286 181.518 281.339 180.513 281.339C179.5 281.339 178.894 280.286 178.894 279.028Z" fill="black" fill-opacity="0.98"/>
<path d="M188.411 275.205V281.985H189.61L189.49 281.085V278.388H191.755L191.994 277.502H189.49V274.985H192.354V274.099H188.251L188.411 275.205Z" fill="black" fill-opacity="0.98"/>
<path d="M197.715 281.099C197.715 281.652 198.062 282.144 198.062 282.144L199.174 281.985C199.174 281.985 198.634 281.352 198.634 280.633V275.957L197.476 276.09L197.629 277.189V280.306C197.629 280.306 197.056 281.205 195.797 281.205C195.051 281.205 194.918 280.666 194.918 279.527V275.957L193.759 276.09L193.912 277.189V280.726C193.912 281.685 194.692 282.144 195.484 282.144C196.277 282.144 197.249 281.698 197.715 281.099Z" fill="black" fill-opacity="0.98"/>
<path d="M202.051 274.878L200.925 275.012V276.091H200.193V276.903H200.925V280.32C200.925 281.638 201.571 282.144 202.351 282.144C202.903 282.144 203.536 282.011 204.056 281.605L203.889 280.693C203.576 280.992 203.05 281.185 202.59 281.185C202.218 281.185 201.931 280.979 201.931 280.42V276.903H203.41L203.769 276.091H201.931L202.051 274.878Z" fill="black" fill-opacity="0.98"/>
<path d="M209.004 281.099C209.004 281.652 209.35 282.144 209.35 282.144L210.469 281.985C210.469 281.985 209.93 281.352 209.93 280.633V275.957L208.764 276.09L208.924 277.189V280.306C208.924 280.306 208.345 281.205 207.086 281.205C206.347 281.205 206.213 280.666 206.213 279.527V275.957L205.048 276.09L205.208 277.189V280.726C205.208 281.685 205.987 282.144 206.773 282.144C207.565 282.144 208.538 281.698 209.004 281.099Z" fill="black" fill-opacity="0.98"/>
<path d="M215.791 276.244C215.577 276.017 215.311 275.911 215.038 275.911C213.946 275.911 213.393 276.87 213.166 277.276V275.957L212.001 276.09L212.161 277.189V281.985H213.286L213.166 281.085V278.928C213.166 277.862 214.006 276.976 214.772 276.976C214.938 276.976 215.191 277.063 215.384 277.229L215.791 276.244Z" fill="black" fill-opacity="0.98"/>
<path d="M216.137 279.134C216.137 279.327 216.197 282.144 218.668 282.144C220.512 282.144 221.591 280.633 221.591 278.908C221.591 276.87 220.512 275.911 219.074 275.911C217.256 275.911 216.137 277.276 216.137 279.134ZM217.242 279.028C217.242 277.769 217.855 276.71 218.861 276.71C219.866 276.71 220.492 277.769 220.492 279.028C220.492 280.286 219.866 281.339 218.861 281.339C217.855 281.339 217.242 280.286 217.242 279.028Z" fill="black" fill-opacity="0.98"/>
<path d="M293.212 189.17H40.4536V230.41H293.212V189.17Z" fill="#5C832F"/>
<path d="M123.798 218.215H125.882L127.441 214.092H133.315L134.827 218.215H137.438L136.239 215.577L131.35 202.124L129.885 202.437L123.798 218.215ZM130.198 206.78L130.484 205.821L130.724 206.753L132.716 212.267H128.087L130.198 206.78Z" fill="white"/>
<path d="M151.37 210.423H148.9L149.306 212.194L149.279 216.39C149.279 216.39 147.654 216.803 146.355 216.803C143.625 216.803 140.914 214.305 140.914 210.423C140.914 207.093 143.165 203.922 146.142 203.922C147.721 203.922 149.039 204.575 150.172 205.747L151.271 204.116C149.859 202.824 148.107 202.151 146.116 202.151C141.9 202.151 138.61 205.747 138.61 210.662C138.61 215.791 142.206 218.528 145.923 218.528C148.973 218.528 151.39 217.615 151.39 217.615L151.37 210.423Z" fill="white"/>
<path d="M167.168 218.215L162.253 211.695C164.144 210.809 165.323 209.057 165.323 207.186C165.323 203.949 162.779 202.437 160.142 202.437H155.686L155.992 204.642V218.215H158.39L158.15 216.417V212.314C159.569 212.314 159.902 212.314 160.168 212.294L164.384 218.215H167.168ZM158.15 210.542V204.215H159.709C161.487 204.215 163.045 205.221 163.045 207.186C163.045 209.011 161.487 210.542 159.709 210.542H158.15Z" fill="white"/>
<path d="M175.706 202.151C171.603 202.151 168.513 205.841 168.513 210.469C168.513 214.905 171.004 218.528 175.393 218.528C179.489 218.528 182.632 214.832 182.632 210.183C182.632 205.581 180.328 202.151 175.706 202.151ZM170.858 210.329C170.858 206.753 172.756 203.856 175.586 203.856C178.41 203.856 180.281 206.753 180.281 210.329C180.281 213.899 178.41 216.803 175.586 216.803C172.756 216.803 170.858 213.899 170.858 210.329Z" fill="white"/>
<path d="M186.395 218.215H194.067L194.547 216.443H188.553V211.022H193.088L193.568 209.25H188.553V204.215H194.287V202.437H186.082L186.395 204.642V218.215Z" fill="white"/>
<path d="M209.439 204.116C208.02 202.824 206.395 202.151 204.404 202.151C200.182 202.151 196.778 205.747 196.778 210.662C196.778 215.791 200.375 218.528 204.091 218.528C207.354 218.528 209.652 216.443 209.652 216.443L209.126 214.665C209.126 214.665 206.655 216.683 204.477 216.683C201.787 216.683 199.083 214.285 199.083 210.423C199.083 207.093 201.214 203.922 204.304 203.922C205.889 203.922 207.208 204.575 208.333 205.747L209.439 204.116Z" fill="white"/>
</svg>
