<svg width="151" height="54" viewBox="0 0 151 54" fill="none" xmlns="http://www.w3.org/2000/svg">
<g filter="url(#filter0_f_2_754)">
<path d="M0 48.1465C2.69783 43.1291 7.41903 40.6203 7.41903 36.1047C7.41903 32.9594 14.9177 28.5716 16.5607 26.0542C16.9455 25.4646 16.8614 24.7115 16.8614 24.0075V21.2207C16.8614 20.4662 17.1399 19.7382 17.6434 19.1763V19.1763C18.0144 18.7624 18.2625 18.2553 18.3654 17.7092C18.7255 15.7984 19.5463 11.8667 20.9082 10.5158C22.9315 8.50885 25.6294 9.01058 26.3038 11.5193C26.9783 14.028 26.9783 14.028 28.3272 16.035V16.035C31.0211 20.0431 32.2823 22.7698 34.308 27.1537L38.444 36.1047C38.7526 36.6402 39.3434 32.4859 40.1519 28.2046C41.4148 21.5179 46.1778 24.4063 52.9824 24.472C54.2095 24.4838 55.0743 23.9332 55.3054 22.5576C55.9799 18.5437 58.0033 17.0385 59.3522 18.5437C60.7011 20.0489 62.615 24.0629 64.7478 24.0629C67.4457 24.0629 70.8179 22.5576 72.8413 22.5576C73.4166 22.5576 74.236 22.6844 75.1845 22.8703C77.8899 23.4005 83.7827 23.6106 86.3304 22.5576V22.5576C92.4005 20.0489 95.0984 19.5472 95.7728 17.0385C96.4473 14.5297 101.843 13.5263 106.564 12.5228C111.285 11.5193 126.798 17.0385 131.519 12.5228C136.24 8.00711 134.217 7.50536 140.287 7.50536C145.143 7.50536 149.055 6.50189 150.404 6.00014" stroke="#0CA85D" stroke-width="3" stroke-linecap="round" stroke-linejoin="round"/>
</g>
<path d="M0 48.1465C2.69783 43.1291 7.41903 40.6203 7.41903 36.1047C7.41903 32.9594 14.9177 28.5716 16.5607 26.0542C16.9455 25.4646 16.8614 24.7115 16.8614 24.0075V21.2207C16.8614 20.4662 17.1399 19.7382 17.6434 19.1763V19.1763C18.0144 18.7624 18.2625 18.2553 18.3654 17.7092C18.7255 15.7984 19.5463 11.8667 20.9082 10.5158C22.9315 8.50885 25.6294 9.01058 26.3038 11.5193C26.9783 14.028 26.9783 14.028 28.3272 16.035V16.035C31.0211 20.0431 32.2823 22.7698 34.308 27.1537L38.444 36.1047C38.7526 36.6402 39.3434 32.4859 40.1519 28.2046C41.4148 21.5179 46.1778 24.4063 52.9824 24.472C54.2095 24.4838 55.0743 23.9332 55.3054 22.5576C55.9799 18.5437 58.0033 17.0385 59.3522 18.5437C60.7011 20.0489 62.615 24.0629 64.7478 24.0629C67.4457 24.0629 70.8179 22.5576 72.8413 22.5576C73.4166 22.5576 74.236 22.6844 75.1845 22.8703C77.8899 23.4005 83.7827 23.6106 86.3304 22.5576V22.5576C92.4005 20.0489 95.0984 19.5472 95.7728 17.0385C96.4473 14.5297 101.843 13.5263 106.564 12.5228C111.285 11.5193 126.798 17.0385 131.519 12.5228C136.24 8.00711 134.217 7.50536 140.287 7.50536C145.143 7.50536 149.055 6.50189 150.404 6.00014" stroke="#0CA85D" stroke-linecap="round" stroke-linejoin="round"/>
<defs>
<filter id="filter0_f_2_754" x="-5.50049" y="0.5" width="161.405" height="53.1465" filterUnits="userSpaceOnUse" color-interpolation-filters="sRGB">
<feFlood flood-opacity="0" result="BackgroundImageFix"/>
<feBlend mode="normal" in="SourceGraphic" in2="BackgroundImageFix" result="shape"/>
<feGaussianBlur stdDeviation="2" result="effect1_foregroundBlur_2_754"/>
</filter>
</defs>
</svg>
