<svg width="162" height="54" viewBox="0 0 162 54" fill="none" xmlns="http://www.w3.org/2000/svg">
<g filter="url(#filter0_f_2_760)">
<path d="M6 48.1465C8.69783 43.1291 13.419 40.6203 13.419 36.1047C13.419 32.9594 20.9177 28.5716 22.5607 26.0542C22.9455 25.4646 22.8614 24.7115 22.8614 24.0075V21.2207C22.8614 20.4662 23.1399 19.7382 23.6434 19.1763V19.1763C24.0144 18.7624 24.2625 18.2553 24.3654 17.7092C24.7255 15.7984 25.5463 11.8667 26.9082 10.5158C28.9315 8.50885 31.6294 9.01058 32.3038 11.5193C32.9783 14.028 32.9783 14.028 34.3272 16.035V16.035C37.0211 20.0431 38.2823 22.7698 40.308 27.1537L44.444 36.1047C44.7526 36.6402 45.3434 32.4859 46.1519 28.2046C47.4148 21.5179 52.1778 24.4063 58.9824 24.472C60.2095 24.4838 61.0743 23.9332 61.3054 22.5576C61.9799 18.5437 64.0033 17.0385 65.3522 18.5437C66.7011 20.0489 68.615 24.0629 70.7478 24.0629C73.4457 24.0629 76.8179 22.5576 78.8413 22.5576C79.4166 22.5576 80.236 22.6844 81.1845 22.8703C83.8899 23.4005 89.7827 23.6106 92.3304 22.5576V22.5576C98.4005 20.0489 101.098 19.5472 101.773 17.0385C102.447 14.5297 107.843 13.5263 112.564 12.5228C117.285 11.5193 132.798 17.0385 137.519 12.5228C142.24 8.00711 140.217 7.50536 146.287 7.50536C151.143 7.50536 155.055 6.50189 156.404 6.00014" stroke="#111111" stroke-width="3" stroke-linecap="round" stroke-linejoin="round"/>
</g>
<path d="M6 48.1465C8.69783 43.1291 13.419 40.6203 13.419 36.1047C13.419 32.9594 20.9177 28.5716 22.5607 26.0542C22.9455 25.4646 22.8614 24.7115 22.8614 24.0075V21.2207C22.8614 20.4662 23.1399 19.7382 23.6434 19.1763V19.1763C24.0144 18.7624 24.2625 18.2553 24.3654 17.7092C24.7255 15.7984 25.5463 11.8667 26.9082 10.5158C28.9315 8.50885 31.6294 9.01058 32.3038 11.5193C32.9783 14.028 32.9783 14.028 34.3272 16.035V16.035C37.0211 20.0431 38.2823 22.7698 40.308 27.1537L44.444 36.1047C44.7526 36.6402 45.3434 32.4859 46.1519 28.2046C47.4148 21.5179 52.1778 24.4063 58.9824 24.472C60.2095 24.4838 61.0743 23.9332 61.3054 22.5576C61.9799 18.5437 64.0033 17.0385 65.3522 18.5437C66.7011 20.0489 68.615 24.0629 70.7478 24.0629C73.4457 24.0629 76.8179 22.5576 78.8413 22.5576C79.4166 22.5576 80.236 22.6844 81.1845 22.8703C83.8899 23.4005 89.7827 23.6106 92.3304 22.5576V22.5576C98.4005 20.0489 101.098 19.5472 101.773 17.0385C102.447 14.5297 107.843 13.5263 112.564 12.5228C117.285 11.5193 132.798 17.0385 137.519 12.5228C142.24 8.00711 140.217 7.50536 146.287 7.50536C151.143 7.50536 155.055 6.50189 156.404 6.00014" stroke="#111111" stroke-linecap="round" stroke-linejoin="round"/>
<defs>
<filter id="filter0_f_2_760" x="0.499512" y="0.5" width="161.405" height="53.1465" filterUnits="userSpaceOnUse" color-interpolation-filters="sRGB">
<feFlood flood-opacity="0" result="BackgroundImageFix"/>
<feBlend mode="normal" in="SourceGraphic" in2="BackgroundImageFix" result="shape"/>
<feGaussianBlur stdDeviation="2" result="effect1_foregroundBlur_2_760"/>
</filter>
</defs>
</svg>
