<svg width="124" height="78" viewBox="0 0 124 78" fill="none" xmlns="http://www.w3.org/2000/svg">
<path d="M0 10C0 4.47715 4.47715 0 10 0H21C26.5228 0 31 4.47715 31 10V78H0V10Z" fill="black"/>
<path d="M31 32C31 26.4772 35.4772 22 41 22H52C57.5228 22 62 26.4772 62 32V78H31V32Z" fill="#9F43CC"/>
<path d="M62 45C62 39.4772 66.4772 35 72 35H83C88.5228 35 93 39.4772 93 45V78H62V45Z" fill="#EBA10F"/>
<path d="M93 60C93 54.4772 97.4772 50 103 50H114C119.523 50 124 54.4772 124 60V78H93V60Z" fill="#2B87E3"/>
</svg>
