<svg width="55" height="55" viewBox="0 0 55 55" fill="none" xmlns="http://www.w3.org/2000/svg">
<path d="M50.3249 39.1359C51.9233 40.7429 52.5679 42.6851 51.7686 43.4843C50.9694 44.2835 49.0272 43.639 47.4202 42.0406C47.3994 42.0103 47.3764 41.9816 47.3514 41.9546C46.7413 42.1179 46.0022 42.307 45.16 42.4789C45.16 42.4789 44.4725 42.6164 43.6475 42.7453C43.4327 42.7882 43.2007 42.8226 42.9686 42.8484C41.6452 43.0289 37.5288 43.4156 36.0936 42.9687C30.4819 41.2242 29.0811 15.3656 37.8124 12.0312C39.4747 11.4959 41.2739 11.5752 42.8827 12.2546C42.9664 12.2648 43.0496 12.2791 43.1319 12.2976C44.5599 12.5198 45.97 12.8443 47.3514 13.2687C47.3772 13.2429 47.3944 13.2085 47.4202 13.1828C49.0272 11.5843 50.9694 10.9312 51.7686 11.7304C52.5679 12.5296 51.9233 14.4804 50.3249 16.0789C50.2991 16.1046 50.2647 16.1304 50.2389 16.1562C50.8106 18.4659 51.2042 20.816 51.4163 23.1859L51.5452 24.9562C51.7676 29.6977 51.328 34.447 50.2389 39.0671C50.2647 39.0929 50.2991 39.1101 50.3249 39.1359Z" fill="#9B643E"/>
<path d="M45.5468 28.3592C45.5804 33.2192 44.9413 38.0604 43.6475 42.7451C43.4327 42.7881 43.2007 42.8225 42.9686 42.8482C41.6452 43.0287 37.5288 43.4154 36.0936 42.9686C30.4819 41.224 29.0811 15.3654 37.8124 12.0311C39.4747 11.4958 41.2739 11.575 42.8827 12.2545C42.9664 12.2646 43.0496 12.279 43.1319 12.2975C44.7809 17.49 45.596 22.9113 45.5468 28.3592Z" fill="#875838"/>
<path d="M19.7654 41.2498C17.406 42.6545 14.6402 43.2179 11.9193 42.8483C11.8248 42.8311 11.7217 42.8225 11.6272 42.8053C10.2562 42.6043 8.89878 42.3202 7.56231 41.9545C7.53443 41.9812 7.50857 42.0099 7.48497 42.0404C5.88653 43.6389 3.94435 44.2834 3.13653 43.4842C2.32872 42.685 2.99044 40.7428 4.58888 39.1358C4.61466 39.11 4.64903 39.0928 4.67481 39.067C3.99333 36.1305 3.57062 33.1399 3.41153 30.1295L3.35997 28.3592C3.29536 24.2529 3.73696 20.1543 4.67481 16.1561C4.64903 16.1303 4.61466 16.1045 4.58888 16.0787C2.99044 14.4803 2.33731 12.5381 3.13653 11.7303C3.93575 10.9225 5.88653 11.5842 7.48497 13.1826C7.51075 13.2084 7.53653 13.2428 7.56231 13.2686C8.12091 13.0967 8.89434 12.8733 9.83966 12.667C9.83966 12.667 10.699 12.4693 11.5842 12.3233L12.1084 12.2459C15.027 12.053 17.9489 12.569 20.6248 13.7498C27.3623 17.4193 28.4022 35.767 19.7654 41.2498Z" fill="#9B643E"/>
<path d="M19.7657 41.2499C17.4063 42.6546 14.6405 43.2181 11.9196 42.8484C11.8251 42.8312 11.722 42.8226 11.6274 42.8054C10.146 37.84 9.41323 32.6815 9.45321 27.4999C9.4142 22.3638 10.1323 17.2501 11.5845 12.3234L12.1087 12.246C15.0272 12.0531 17.9491 12.5691 20.6251 13.7499C27.3626 17.4195 28.4024 35.7671 19.7657 41.2499Z" fill="#875838"/>
<path d="M42.2124 42.0062C44.2234 44.0171 45.0398 46.4663 44.0343 47.4718C43.0288 48.4773 40.5796 47.6609 38.5687 45.6499C38.5343 45.6156 38.5085 45.5812 38.4742 45.5468C31.2938 47.5406 23.706 47.5406 16.5257 45.5468C16.4913 45.5812 16.4656 45.6156 16.4312 45.6499C14.4202 47.6609 11.971 48.4773 10.9656 47.4718C9.96009 46.4663 10.7765 44.0171 12.7874 42.0062C12.8218 41.9718 12.8562 41.946 12.8906 41.9117C12.7788 41.4218 12.6757 40.9406 12.5812 40.4507C10.6809 31.4171 10.7865 22.0765 12.8906 13.0882C12.8562 13.0538 12.8218 13.0281 12.7874 12.9937C10.7765 10.9827 9.96009 8.53353 10.9656 7.52806C11.971 6.52259 14.4202 7.33899 16.4312 9.34993C16.4656 9.38431 16.4913 9.41868 16.5257 9.45306C23.6739 7.23586 31.326 7.23586 38.4742 9.45306C38.5085 9.41868 38.5343 9.38431 38.5687 9.34993C40.5796 7.33899 43.0288 6.52259 44.0343 7.52806C45.0398 8.53353 44.2234 10.9827 42.2124 12.9937C42.1781 13.0281 42.1437 13.0538 42.1093 13.0882C42.3499 14.0421 42.5562 15.0046 42.7452 15.9671C44.3719 24.5628 44.1551 33.406 42.1093 41.9117C42.1437 41.946 42.1781 41.9718 42.2124 42.0062Z" fill="#A5683D"/>
<path d="M42.1093 13.0882C42.3499 14.0421 42.5562 15.0046 42.7452 15.9671C39.7253 21.1232 35.8518 25.729 31.2898 29.5882C25.7399 34.2796 19.4069 37.9566 12.5812 40.4507C10.6809 31.4171 10.7865 22.0765 12.8906 13.0882C12.8562 13.0538 12.8218 13.0281 12.7874 12.9937C10.7765 10.9827 9.96009 8.53353 10.9656 7.52806C11.971 6.52259 14.4202 7.33899 16.4312 9.34993C16.4656 9.38431 16.4913 9.41868 16.5257 9.45306C23.6739 7.23586 31.326 7.23586 38.4742 9.45306C38.5085 9.41868 38.5343 9.38431 38.5687 9.34993C40.5796 7.33899 43.0288 6.52259 44.0343 7.52806C45.0398 8.53353 44.2234 10.9827 42.2124 12.9937C42.1781 13.0281 42.1437 13.0538 42.1093 13.0882Z" fill="#AF7146"/>
<path d="M27.5 25.7812C27.2721 25.7812 27.0535 25.6907 26.8923 25.5295C26.7312 25.3684 26.6406 25.1498 26.6406 24.9219V16.3281C26.6406 15.6444 26.369 14.9886 25.8855 14.5051C25.402 14.0216 24.7463 13.75 24.0625 13.75C23.8346 13.75 23.616 13.6595 23.4548 13.4983C23.2937 13.3371 23.2031 13.1185 23.2031 12.8906C23.2031 12.6627 23.2937 12.4441 23.4548 12.283C23.616 12.1218 23.8346 12.0312 24.0625 12.0312C25.2017 12.0326 26.2938 12.4858 27.0993 13.2913C27.9049 14.0968 28.358 15.1889 28.3594 16.3281V24.9219C28.3594 25.1498 28.2688 25.3684 28.1077 25.5295C27.9465 25.6907 27.7279 25.7812 27.5 25.7812Z" fill="#009245"/>
<path d="M27.5 17.1875C27.2721 17.1875 27.0535 17.097 26.8923 16.9358C26.7312 16.7746 26.6406 16.556 26.6406 16.3281V14.6094C26.642 13.4702 27.0951 12.3781 27.9007 11.5725C28.7062 10.767 29.7983 10.3139 30.9375 10.3125C31.1654 10.3125 31.384 10.403 31.5452 10.5642C31.7063 10.7254 31.7969 10.944 31.7969 11.1719C31.7969 11.3998 31.7063 11.6184 31.5452 11.7795C31.384 11.9407 31.1654 12.0312 30.9375 12.0312C30.2537 12.0312 29.598 12.3029 29.1145 12.7864C28.631 13.2699 28.3594 13.9256 28.3594 14.6094V16.3281C28.3594 16.556 28.2688 16.7746 28.1077 16.9358C27.9465 17.097 27.7279 17.1875 27.5 17.1875Z" fill="#009245"/>
<path d="M37.8125 28.3594H17.1875V38.6719H37.8125V28.3594Z" fill="#E6E6E6"/>
<path d="M26.6406 30.9375H19.7656V32.6562H26.6406V30.9375Z" fill="#808080"/>
<path d="M35.2344 34.375H24.9219V36.0938H35.2344V34.375Z" fill="#808080"/>
<path d="M23.2031 34.375H19.7656V36.0938H23.2031V34.375Z" fill="#808080"/>
<path d="M35.2344 30.9375H28.3594V32.6562H35.2344V30.9375Z" fill="#808080"/>
<path d="M34.375 16.3281C34.373 17.695 33.8291 19.0054 32.8625 19.9719C31.896 20.9384 30.5857 21.4824 29.2188 21.4844H27.5C27.4994 21.1962 27.5253 20.9085 27.5774 20.625C27.746 19.5674 28.2489 18.5916 29.0125 17.8406C29.4893 17.3596 30.0569 16.9781 30.6825 16.7184C31.308 16.4588 31.979 16.3261 32.6563 16.3281H34.375Z" fill="#13A555"/>
<path d="M25.7812 21.4844H27.5C27.5 20.1169 26.9568 18.8053 25.9898 17.8384C25.0228 16.8714 23.7113 16.3281 22.3438 16.3281H20.625C20.625 17.6956 21.1682 19.0072 22.1352 19.9741C23.1022 20.9411 24.4137 21.4844 25.7812 21.4844Z" fill="#13A555"/>
<path d="M21.5615 16.3281C21.7301 17.3858 22.2331 18.3616 22.9967 19.1125C23.4734 19.5936 24.0411 19.9751 24.6666 20.2347C25.2922 20.4944 25.9631 20.6271 26.6404 20.625H27.4225C27.2539 19.5674 26.7509 18.5916 25.9873 17.8406C25.5106 17.3596 24.9429 16.9781 24.3173 16.7184C23.6918 16.4588 23.0209 16.3261 22.3436 16.3281H21.5615ZM33.4381 16.3281C33.2695 17.3858 32.7665 18.3616 32.0029 19.1125C31.5262 19.5936 30.9585 19.9751 30.333 20.2347C29.7074 20.4944 29.0365 20.6271 28.3592 20.625H27.5771C27.7458 19.5674 28.2487 18.5916 29.0123 17.8406C29.4891 17.3596 30.0567 16.9781 30.6823 16.7184C31.3078 16.4588 31.9788 16.3261 32.6561 16.3281H33.4381Z" fill="#22AF5E"/>
<path d="M52.3787 11.1265C51.2615 10.0093 49.04 10.5249 47.1056 12.2987C46.1921 12.0409 45.2734 11.832 44.3556 11.655C44.6486 11.1828 44.8884 10.6796 45.0706 10.1545C45.5243 8.79672 45.3714 7.64688 44.6409 6.91813C43.9104 6.18938 42.7623 6.03813 41.4053 6.48844C40.2169 6.92215 39.1334 7.60183 38.2257 8.48305C31.2237 6.42143 23.7759 6.42143 16.7739 8.48305C15.866 7.6021 14.7826 6.92245 13.5943 6.48844C12.2373 6.03813 11.0883 6.18766 10.3587 6.91813C9.6291 7.64859 9.47613 8.79672 9.92902 10.1545C10.1094 10.6745 10.3469 11.1728 10.6371 11.6404C9.69183 11.8209 8.74652 12.0288 7.80723 12.2987C5.87191 10.5223 3.65043 10.0102 2.5341 11.1265C1.41777 12.2428 1.93254 14.4858 3.73121 16.4271C2.79274 20.6324 2.38508 24.9388 2.51777 29.2455L4.23652 29.1905C4.10433 24.873 4.53214 20.5565 5.50926 16.3489C5.54191 16.207 5.53799 16.0592 5.49785 15.9192C5.45772 15.7793 5.38269 15.6518 5.2798 15.5488C5.25058 15.5205 5.22137 15.4938 5.19387 15.4741C3.7991 14.0759 3.45879 12.633 3.74754 12.3416C4.03629 12.0503 5.4809 12.3941 6.8748 13.7863C6.88855 13.8026 6.93926 13.8584 6.95473 13.8722C7.06496 13.9827 7.2032 14.061 7.3546 14.0989C7.506 14.1367 7.66485 14.1326 7.8141 14.087C9.11801 13.6954 10.4467 13.3916 11.7913 13.1778C11.8454 13.2388 11.8936 13.3024 11.9494 13.3626C9.85357 22.6705 9.85357 32.3281 11.9494 41.636C11.8583 41.7331 11.7775 41.8363 11.6916 41.9351C10.3759 41.7427 9.07274 41.4721 7.78918 41.1247C7.6409 41.0842 7.48447 41.0842 7.33619 41.1247C7.18791 41.1652 7.05321 41.2447 6.94613 41.355L6.88082 41.4289C5.48262 42.8262 4.03887 43.1691 3.74754 42.883C3.45621 42.5968 3.7991 41.1488 5.19816 39.7505C5.21019 39.7411 5.25832 39.6964 5.26949 39.6852C5.37588 39.5823 5.45387 39.4535 5.49587 39.3116C5.53788 39.1696 5.54249 39.0191 5.50926 38.8748C4.9027 36.2556 4.50527 33.5923 4.32074 30.9102L2.60199 31.0262C2.78401 33.6396 3.16089 36.2359 3.72949 38.7932C1.9334 40.7345 1.41176 42.9689 2.53238 44.0938C2.73896 44.2912 2.98311 44.445 3.25032 44.5462C3.51754 44.6473 3.80236 44.6936 4.08785 44.6825C5.50461 44.5601 6.82974 43.9309 7.82012 42.9105C8.73019 43.1451 9.64801 43.3298 10.5641 43.4897C10.307 43.9191 10.0943 44.3734 9.92902 44.8458C9.47527 46.2036 9.62824 47.3534 10.3587 48.0813C11.0892 48.8092 12.2364 48.9648 13.5943 48.511C14.7885 48.076 15.877 47.3927 16.7877 46.5061C23.8104 48.3611 31.1944 48.3611 38.2171 46.5061C39.1278 47.3927 40.2162 48.0761 41.4105 48.511C41.8723 48.6733 42.3571 48.7604 42.8465 48.7688C43.1773 48.7812 43.5072 48.7267 43.8164 48.6086C44.1256 48.4905 44.4078 48.3111 44.6461 48.0813C45.3757 47.3534 45.5286 46.2036 45.0757 44.8458C44.9092 44.3685 44.6937 43.9098 44.4329 43.4768C45.3215 43.3195 46.211 43.1391 47.097 42.9105C48.0865 43.9307 49.4107 44.5599 50.8267 44.6825C51.1121 44.6935 51.3969 44.647 51.6641 44.5459C51.9313 44.4448 52.1755 44.291 52.3821 44.0938C53.4993 42.9715 52.9837 40.7337 51.185 38.7932C52.2172 34.2288 52.6266 29.5456 52.4019 24.8713L50.6832 24.9624C50.907 29.6363 50.476 34.3186 49.4027 38.8731C49.3803 39.0336 49.3971 39.1971 49.4518 39.3496C49.5064 39.5021 49.5972 39.6391 49.7164 39.7488C51.1146 41.147 51.454 42.5925 51.1653 42.8812C50.8765 43.17 49.4319 42.8297 48.044 41.4427L47.977 41.3679C47.8701 41.2542 47.7343 41.1717 47.5841 41.1293C47.4339 41.0869 47.275 41.0862 47.1245 41.1273C45.8662 41.4676 44.589 41.7336 43.2994 41.9239C43.2135 41.8294 43.1413 41.7314 43.0545 41.6386C45.221 32.336 45.221 22.66 43.0545 13.3574C43.1052 13.3033 43.1473 13.2466 43.1971 13.1924C44.5154 13.4049 45.8182 13.7043 47.097 14.0887C47.248 14.1342 47.4086 14.1373 47.5613 14.0976C47.7139 14.0579 47.8527 13.9769 47.9624 13.8636L48.0286 13.7914C49.4268 12.3941 50.8688 12.0512 51.1601 12.3416C51.4514 12.6321 51.1129 14.0759 49.7189 15.4689C49.7061 15.4809 49.6528 15.5273 49.6407 15.5402C49.5328 15.6448 49.4542 15.7759 49.4127 15.9203C49.3712 16.0648 49.3684 16.2176 49.4044 16.3635C49.9638 18.6248 50.35 20.9254 50.5594 23.2454L52.2713 23.0907C52.0678 20.845 51.7054 18.6164 51.1868 16.422C52.9794 14.4823 53.4993 12.248 52.3787 11.1265ZM43.4283 46.8662C43.1937 47.1016 42.6282 47.1051 41.9511 46.8808C40.8966 46.4788 39.9448 45.8471 39.165 45.0314C39.1546 45.0194 39.0996 44.9584 39.0876 44.9455C39.0075 44.8638 38.9119 44.7989 38.8064 44.7546C38.7009 44.7103 38.5876 44.6876 38.4732 44.6877C38.3966 44.6879 38.3203 44.698 38.2463 44.7177C31.2142 46.6642 23.7854 46.6642 16.7533 44.7177C16.6054 44.6774 16.4493 44.6775 16.3014 44.7178C16.1534 44.7582 16.019 44.8374 15.912 44.9472L15.8261 45.0434C15.0481 45.8536 14.1 46.4812 13.0503 46.8808C12.3722 47.1051 11.8068 47.0999 11.573 46.8662C11.3393 46.6324 11.3341 46.0661 11.5584 45.3889C11.9598 44.3346 12.591 43.3829 13.4061 42.6028C13.4181 42.5925 13.4791 42.5375 13.492 42.5255C13.5977 42.4226 13.6751 42.2942 13.7167 42.1527C13.7584 42.0112 13.763 41.8614 13.73 41.7177C11.5506 32.3646 11.5506 22.6357 13.73 13.2827C13.763 13.1389 13.7584 12.9891 13.7167 12.8476C13.6751 12.7061 13.5977 12.5777 13.492 12.4748L13.3957 12.3889C12.5855 11.6109 11.958 10.6629 11.5584 9.61313C11.3341 8.93594 11.3384 8.36875 11.573 8.135C11.8076 7.90125 12.3739 7.89781 13.0503 8.12125C14.104 8.52292 15.0551 9.15406 15.8346 9.96891C15.845 9.98094 15.9 10.042 15.912 10.0548C16.0215 10.1679 16.1601 10.2485 16.3125 10.2878C16.4649 10.3271 16.6252 10.3235 16.7757 10.2774C23.7623 8.11951 31.2373 8.11951 38.2239 10.2774C38.3745 10.3229 38.5346 10.3262 38.6869 10.2869C38.8392 10.2477 38.9778 10.1674 39.0876 10.0548L39.1736 9.95859C39.9515 9.14838 40.8996 8.52086 41.9493 8.12125C42.6265 7.89609 43.1937 7.90039 43.4266 8.135C43.6595 8.36961 43.6655 8.93594 43.4412 9.61313C43.0395 10.6668 42.4084 11.618 41.5936 12.3975C41.5815 12.4078 41.5205 12.4628 41.5076 12.4748C41.4003 12.5794 41.3221 12.7103 41.281 12.8544C41.2398 12.9985 41.2371 13.1509 41.273 13.2964C43.5239 22.6365 43.5239 32.3776 41.273 41.7177C41.24 41.8614 41.2446 42.0112 41.2863 42.1527C41.328 42.2942 41.4054 42.4226 41.5111 42.5255L41.6073 42.6114C42.4175 43.3894 43.045 44.3374 43.4446 45.3872C43.6672 46.0627 43.6629 46.6324 43.4283 46.8662Z" fill="black"/>
<path d="M25.7812 22.3438H26.6406V24.9219C26.6406 25.1498 26.7312 25.3684 26.8923 25.5295C27.0535 25.6907 27.2721 25.7812 27.5 25.7812C27.7279 25.7812 27.9465 25.6907 28.1077 25.5295C28.2688 25.3684 28.3594 25.1498 28.3594 24.9219V22.3438H29.2188C30.8136 22.3417 32.3425 21.7073 33.4702 20.5796C34.5979 19.4518 35.2323 17.9229 35.2344 16.3281C35.2344 16.1002 35.1438 15.8816 34.9827 15.7205C34.8215 15.5593 34.6029 15.4688 34.375 15.4688H32.6562C31.8551 15.4686 31.0621 15.629 30.3241 15.9406C29.586 16.2522 28.918 16.7086 28.3594 17.2829V14.6094C28.3594 13.9256 28.631 13.2699 29.1145 12.7864C29.598 12.3029 30.2537 12.0312 30.9375 12.0312C31.1654 12.0312 31.384 11.9407 31.5452 11.7795C31.7063 11.6184 31.7969 11.3998 31.7969 11.1719C31.7969 10.944 31.7063 10.7254 31.5452 10.5642C31.384 10.403 31.1654 10.3125 30.9375 10.3125C30.0583 10.3151 29.2012 10.5876 28.482 11.0933C27.7628 11.599 27.2163 12.3134 26.9165 13.1398C26.1351 12.4299 25.1182 12.0349 24.0625 12.0312C23.8346 12.0312 23.616 12.1218 23.4548 12.283C23.2937 12.4441 23.2031 12.6627 23.2031 12.8906C23.2031 13.1185 23.2937 13.3371 23.4548 13.4983C23.616 13.6595 23.8346 13.75 24.0625 13.75C24.7463 13.75 25.402 14.0216 25.8855 14.5051C26.369 14.9886 26.6406 15.6444 26.6406 16.3281V17.2829C26.082 16.7086 25.414 16.2522 24.6759 15.9406C23.9379 15.629 23.1449 15.4686 22.3438 15.4688H20.625C20.3971 15.4688 20.1785 15.5593 20.0173 15.7205C19.8562 15.8816 19.7656 16.1002 19.7656 16.3281C19.7677 17.9229 20.4021 19.4518 21.5298 20.5796C22.6575 21.7073 24.1864 22.3417 25.7812 22.3438ZM32.6562 17.1875H33.4297C33.2304 18.1575 32.7027 19.029 31.9356 19.6552C31.1685 20.2814 30.209 20.6239 29.2188 20.625H28.4453C28.6446 19.655 29.1723 18.7835 29.9394 18.1573C30.7065 17.5311 31.666 17.1886 32.6562 17.1875ZM22.3438 17.1875C23.334 17.1886 24.2935 17.5311 25.0606 18.1573C25.8277 18.7835 26.3554 19.655 26.5547 20.625H25.7812C24.791 20.6239 23.8315 20.2814 23.0644 19.6552C22.2973 19.029 21.7696 18.1575 21.5703 17.1875H22.3438ZM37.8125 27.5H17.1875C16.9596 27.5 16.741 27.5905 16.5798 27.7517C16.4187 27.9129 16.3281 28.1315 16.3281 28.3594V38.6719C16.3281 38.8998 16.4187 39.1184 16.5798 39.2795C16.741 39.4407 16.9596 39.5312 17.1875 39.5312H37.8125C38.0404 39.5312 38.259 39.4407 38.4202 39.2795C38.5813 39.1184 38.6719 38.8998 38.6719 38.6719V28.3594C38.6719 28.1315 38.5813 27.9129 38.4202 27.7517C38.259 27.5905 38.0404 27.5 37.8125 27.5ZM36.9531 37.8125H18.0469V29.2188H36.9531V37.8125Z" fill="black"/>
<path d="M26.6406 30.9375H19.7656V32.6562H26.6406V30.9375Z" fill="black"/>
<path d="M35.2344 34.375H24.9219V36.0938H35.2344V34.375Z" fill="black"/>
<path d="M23.2031 34.375H19.7656V36.0938H23.2031V34.375Z" fill="black"/>
<path d="M35.2344 30.9375H28.3594V32.6562H35.2344V30.9375Z" fill="black"/>
</svg>
