<svg width="55" height="55" viewBox="0 0 55 55" fill="none" xmlns="http://www.w3.org/2000/svg">
<path d="M25.3053 16.6307C30.0525 8.40989 37.2317 3.66958 41.3412 6.04317C45.4525 8.41505 44.9368 17.0036 40.1896 25.2244C39.7957 25.9077 39.3784 26.5773 38.9384 27.2319L33.6687 32.481L20.6904 37.046L20.8142 25.2811L25.3053 16.6307Z" fill="#FCD062"/>
<path fill-rule="evenodd" clip-rule="evenodd" d="M38.7442 5.43655H38.6874L37.7936 6.96627L36.1454 6.01248C35.7141 6.17866 35.2929 6.36978 34.8838 6.58484L34.8633 6.61736L34.8391 6.60015H34.8254C34.4299 6.80982 34.044 7.03691 33.6687 7.28077L33.0912 8.27086L32.634 8.00964C32.6289 8.00964 32.622 8.02685 32.6168 8.02685C32.1493 8.37919 31.6818 8.76419 31.2177 9.18184L32.2249 9.75924L31.3844 11.1996L29.9751 10.3832C29.575 10.7952 29.1875 11.2194 28.8132 11.6551C28.8046 11.6551 28.7978 11.6722 28.7892 11.6825L30.5217 12.6829L29.6554 14.1696L27.696 13.0387C27.6926 13.0387 27.6891 13.0388 27.6857 13.056C27.3451 13.5051 27.0162 13.963 26.6992 14.4291C26.6958 14.4291 26.6906 14.4464 26.6854 14.4464L28.7926 15.6616L27.9264 17.1483L25.7521 15.8936C25.6077 16.1274 25.4599 16.3542 25.3224 16.5948C25.3173 16.612 25.3121 16.6153 25.3052 16.6256L25.2949 16.6428L24.9083 17.3923L27.0635 18.6333L26.0219 20.4206L27.5104 21.2853L28.5537 19.4977L30.0112 20.3365L22.7632 32.7802L24.2465 33.643L28.0363 27.1341L29.4938 27.9763L29.236 28.4198L30.7142 29.2878L34.461 22.9077L36.0371 23.817L34.4455 26.572L35.9357 27.4314L37.5273 24.6764L39.7325 25.9516C39.8837 25.7058 40.0418 25.4738 40.1897 25.2194C40.334 24.9684 40.4612 24.7159 40.5987 24.4632L38.3867 23.1861L39.246 21.6978L41.3842 22.9352C41.6369 22.4075 41.874 21.8833 42.0923 21.3591L40.1054 20.211L40.9648 18.7243L42.718 19.7383C42.9139 19.1763 43.0961 18.6212 43.2508 18.0729C43.2508 18.0729 43.2507 18.0557 43.2541 18.0557L41.8242 17.2307L42.6801 15.7457L43.6873 16.3197C43.8145 15.7044 43.909 15.1029 43.9794 14.5185L43.5395 14.2659L44.0895 13.3119V13.2878C44.1101 12.8633 44.0947 12.4646 44.0792 12.0675L44.1032 12.0264C44.0858 11.5261 44.0376 11.0272 43.9589 10.5328L42.2934 9.57376L43.1905 8.04405C43.0443 7.76226 42.8747 7.49317 42.6835 7.23965C42.5077 7.00994 42.311 6.79705 42.0958 6.60372C42.0855 6.58653 42.0768 6.5779 42.0648 6.56931L40.8067 8.7125L39.2787 7.83089L40.5316 5.67888C39.9547 5.49087 39.3487 5.40772 38.7424 5.4332L38.7442 5.43655ZM35.4717 7.61436L36.9326 8.45654L36.0457 9.97765L34.5814 9.14219L35.4717 7.61436ZM38.4176 9.31591L39.9387 10.1958L39.057 11.6998L37.5359 10.8301L38.4176 9.31591ZM33.7185 10.6289L35.1794 11.4643L34.3321 12.915L32.8764 12.0728L33.7185 10.6289ZM41.4254 11.0552L42.9138 11.9146L42.0511 13.4116L40.5472 12.5522L41.4254 11.0552ZM36.6696 12.3168L38.1821 13.1831L37.3279 14.644L35.824 13.7743L36.6696 12.3168ZM32.0119 13.5595L33.4711 14.3981L32.6048 15.8867L31.1472 15.0445L32.0119 13.5595ZM39.6774 14.0355L41.1899 14.9018L40.3391 16.3799L38.818 15.5034L39.6774 14.0355ZM34.9578 15.2575L36.4582 16.1238L35.5886 17.6071L34.0915 16.7461L34.9578 15.2575ZM30.2845 16.5277L31.7419 17.3698L30.8757 18.8567L29.4182 18.0144L30.2845 16.5277ZM37.9449 16.9831L39.4746 17.87L38.6153 19.3567L37.0753 18.4665L37.9449 16.9831ZM33.2286 18.2292L34.7188 19.0886L33.8491 20.5719L32.3624 19.7125L33.2286 18.2292ZM36.2056 19.9479L37.761 20.8434L36.9016 22.3354L35.3376 21.4313L36.2056 19.9479ZM31.4961 21.1992L32.976 22.0553L30.3687 26.4998L28.9009 25.6543L31.4961 21.1992Z" fill="#F8B84E"/>
<path d="M22.1751 48.551C21.4601 49.7885 19.8891 50.2079 18.6516 49.4946L17.1632 48.6353C16.8693 48.4665 16.6116 48.2413 16.405 47.9726C16.1984 47.7039 16.0468 47.397 15.9592 47.0696C15.8715 46.7422 15.8494 46.4007 15.8941 46.0647C15.9387 45.7288 16.0494 45.4049 16.2196 45.1118" fill="#FCD062"/>
<path d="M16.0308 47.2534C16.2284 47.8137 16.6083 48.3139 17.1651 48.6353L18.6519 49.4947C19.8894 50.2097 21.4603 49.7886 22.1753 48.5528L20.0664 47.3325C19.6688 47.746 19.1442 48.0143 18.5762 48.0947C18.0083 48.1751 17.4298 48.0628 16.9331 47.7759L16.0308 47.2534Z" fill="#F8B84E"/>
<path fill-rule="evenodd" clip-rule="evenodd" d="M26.8263 20.2432L25.9395 21.7146L35.7948 27.6494L36.6816 26.1747L26.8246 20.2451L26.8263 20.2432Z" fill="#F8B84E"/>
<path d="M22.9899 49.0188C21.3296 47.9406 20.1472 46.2655 19.6872 44.34C19.2272 42.4146 19.5248 40.3859 20.5183 38.6737L23.9558 32.7199L27.3933 26.7662C27.9033 25.887 28.2347 24.9158 28.3684 23.9083C28.502 22.9008 28.4353 21.8768 28.1721 20.8951C27.9089 19.9134 27.4544 18.9934 26.8347 18.1878C26.215 17.3823 25.4422 16.7071 24.5608 16.201L23.0724 15.3416L21.3416 14.3413L21.3846 14.4547C21.7735 15.5175 21.9237 16.6528 21.8245 17.7801C21.7253 18.9073 21.3791 19.999 20.8105 20.9774L17.373 26.9312L14.7949 31.3999L13.0761 34.3768C12.5659 35.2557 12.2344 36.2267 12.1005 37.2341C11.9666 38.2415 12.033 39.2654 12.2958 40.2471C12.5587 41.2287 13.0129 42.1488 13.6323 42.9545C14.2516 43.7602 15.0241 44.4356 15.9052 44.9419L22.6272 48.8229L22.9899 49.0188Z" fill="#60C5B8"/>
<path d="M21.3418 14.3413L21.3848 14.4547C21.4639 14.6696 21.5309 14.8862 21.5911 15.1079C21.6254 15.2402 21.6323 15.3794 21.6598 15.5152L22.8423 16.201C23.7232 16.7074 24.4954 17.3827 25.1147 18.1882C25.7339 18.9938 26.188 19.9137 26.4508 20.8951C26.7137 21.8766 26.7801 22.9003 26.6464 23.9075C26.5126 24.9147 26.1813 25.8856 25.6714 26.7644L22.2339 32.7199L18.7964 38.6719C18.0838 39.9053 17.727 41.312 17.7655 42.7358C17.804 44.1597 18.2364 45.545 19.0146 46.738L22.6275 48.8229L22.9884 49.0188C21.328 47.9403 20.1456 46.2648 19.6859 44.3389C19.2262 42.413 19.5243 40.3842 20.5185 38.6719L23.956 32.7199L27.3935 26.7644C27.9033 25.8854 28.2345 24.9143 28.368 23.907C28.5015 22.8996 28.4347 21.8758 28.1715 20.8943C27.9084 19.9129 27.4539 18.993 26.8344 18.1876C26.2148 17.3822 25.4422 16.7071 24.561 16.201L23.0743 15.3416L21.3418 14.3413Z" fill="#25B39E"/>
<path d="M22.99 49.0186C21.3297 47.9404 20.1473 46.2653 19.6873 44.3398C19.2273 42.4144 19.5249 40.3857 20.5184 38.6735L23.0622 34.2528C26.9809 27.4689 35.4028 24.9888 42.2847 28.4469L43.7697 29.3235C40.512 30.504 37.7783 32.8011 36.0542 35.8066L34.4747 38.5411L32.8951 41.2774L31.3156 44.0136L29.6484 46.9218C28.9646 48.106 27.8384 48.9701 26.5175 49.324C25.1966 49.678 23.7893 49.4927 22.605 48.8089L22.99 49.0186Z" fill="#60C5B8"/>
<path d="M35.5677 26.8969C35.3666 26.8969 35.1672 26.9227 34.9661 26.9313C36.9157 27.0545 38.8203 27.5701 40.5658 28.4473L42.0508 29.3238C38.7934 30.5039 36.0598 32.8004 34.3353 35.8052L32.7575 38.5415L31.1763 41.2777L29.595 44.0123L27.9312 46.9204C27.549 47.5779 27.0253 48.1422 26.398 48.5723C25.7708 49.0024 25.0558 49.2877 24.3047 49.4074C25.3426 49.59 26.4116 49.4493 27.367 49.0045C28.3224 48.5597 29.1181 47.8322 29.6466 46.9204L31.3138 44.0123L32.895 41.2777L34.4745 38.5415L36.0558 35.8052C37.7798 32.8007 40.5128 30.5043 43.7695 29.3238L42.2845 28.4473C40.2028 27.3978 37.8988 26.8654 35.5677 26.8952V26.8969Z" fill="#25B39E"/>
</svg>
