<svg width="55" height="55" viewBox="0 0 55 55" fill="none" xmlns="http://www.w3.org/2000/svg">
<path d="M32.8226 31.582C32.8226 36.9456 30.7075 41.757 27.3581 45.0355C27.1819 45.2074 27.0025 45.3757 26.8199 45.5404C24.0753 47.9972 20.5905 49.4678 16.7985 49.4678C7.94913 49.4678 0.774414 41.4605 0.774414 31.582C0.774414 21.7035 7.94912 13.6963 16.7985 13.6963C21.1341 13.6963 25.0679 15.6191 27.9532 18.7408C28.1036 18.903 28.2497 19.0674 28.3936 19.236C31.1372 22.4469 32.8226 26.7942 32.8226 31.582Z" fill="#6F2D49"/>
<path d="M32.8222 31.5819C32.8222 36.9455 30.707 41.7569 27.3576 45.0354C27.1814 45.2073 27.002 45.3756 26.8194 45.5403C23.4324 42.4981 21.2646 37.8328 21.2646 32.6024C21.2646 26.8092 23.9233 21.7099 27.9527 18.7407C28.1031 18.9029 28.2492 19.0673 28.3931 19.2359C31.1367 22.4468 32.8222 26.7941 32.8222 31.5819Z" fill="#54233A"/>
<path d="M39.3567 49.1992C47.5686 49.1992 54.2256 41.7686 54.2256 32.6025C54.2256 23.4364 47.5686 16.0059 39.3567 16.0059C31.1448 16.0059 24.4878 23.4364 24.4878 32.6025C24.4878 41.7686 31.1448 49.1992 39.3567 49.1992Z" fill="#6F2D49"/>
<path d="M39.3567 45.4932C45.3363 45.4932 50.1837 39.8421 50.1837 32.8711C50.1837 25.9001 45.3363 20.249 39.3567 20.249C33.3772 20.249 28.5298 25.9001 28.5298 32.8711C28.5298 39.8421 33.3772 45.4932 39.3567 45.4932Z" fill="#EAB220"/>
<path d="M37.0473 28.3593C37.9818 27.4249 38.2343 26.1624 37.6113 25.5395C36.9884 24.9166 35.7259 25.1691 34.7915 26.1035C33.8571 27.0379 33.6046 28.3004 34.2275 28.9233C34.8504 29.5463 36.1129 29.2937 37.0473 28.3593Z" fill="#FDEB96"/>
<path d="M35.436 35.4492C36.3704 34.5148 36.6229 33.2523 36 32.6294C35.3771 32.0064 34.1146 32.2589 33.1802 33.1933C32.2458 34.1278 31.9933 35.3902 32.6162 36.0132C33.2391 36.6361 34.5016 36.3836 35.436 35.4492Z" fill="#FDEB96"/>
<path d="M45.7754 36.8726C46.3983 36.2497 46.1458 34.9872 45.2114 34.0528C44.277 33.1184 43.0145 32.8659 42.3916 33.4888C41.7687 34.1117 42.0212 35.3742 42.9556 36.3086C43.89 37.243 45.1525 37.4955 45.7754 36.8726Z" fill="#FDEB96"/>
<path d="M41.0488 41.2769C41.6718 40.654 41.4193 39.3915 40.4848 38.4571C39.5504 37.5227 38.2879 37.2702 37.665 37.8931C37.0421 38.516 37.2946 39.7785 38.229 40.7129C39.1634 41.6473 40.4259 41.8998 41.0488 41.2769Z" fill="#FDEB96"/>
<path d="M45.2383 29.2456C45.8612 28.6227 45.6087 27.3602 44.6743 26.4258C43.7399 25.4914 42.4774 25.2389 41.8545 25.8618C41.2315 26.4848 41.4841 27.7472 42.4185 28.6817C43.3529 29.6161 44.6154 29.8686 45.2383 29.2456Z" fill="#FDEB96"/>
<path d="M16.1541 18.9064C16.0287 18.9064 15.9051 18.877 15.7931 18.8208C15.681 18.7646 15.5836 18.6831 15.5086 18.5827C15.4336 18.4822 15.383 18.3657 15.3609 18.2423C15.3388 18.1189 15.3458 17.9921 15.3813 17.8719C16.0207 15.7217 16.2911 13.4787 16.1812 11.2381C16.1022 9.65493 15.8338 8.08687 15.3816 6.56755C15.3514 6.46615 15.3415 6.35979 15.3525 6.25456C15.3634 6.14933 15.395 6.04728 15.4453 5.95425C15.4957 5.86121 15.5639 5.77901 15.6461 5.71234C15.7282 5.64567 15.8227 5.59583 15.9241 5.56566C16.0255 5.5355 16.1319 5.52561 16.2371 5.53655C16.3423 5.54748 16.4444 5.57904 16.5374 5.62942C16.6304 5.6798 16.7126 5.74801 16.7793 5.83015C16.846 5.9123 16.8958 6.00677 16.926 6.10818C17.4149 7.75105 17.7052 9.44661 17.7906 11.1586C17.9095 13.5805 17.6173 16.005 16.9263 18.3293C16.877 18.4958 16.7751 18.642 16.636 18.746C16.4968 18.85 16.3278 18.9063 16.1541 18.9064Z" fill="#00A653"/>
<path d="M16.1537 18.9065C15.3139 18.9065 14.4783 18.7872 13.6722 18.552C13.5705 18.5224 13.4756 18.4731 13.393 18.4069C13.3104 18.3407 13.2417 18.2588 13.1907 18.166C13.1398 18.0732 13.1076 17.9713 13.0961 17.866C13.0846 17.7608 13.0939 17.6543 13.1236 17.5527C13.1532 17.451 13.2026 17.3562 13.2689 17.2737C13.3352 17.1912 13.4172 17.1225 13.51 17.0717C13.6029 17.0208 13.7049 16.9888 13.8101 16.9773C13.9154 16.9659 14.0219 16.9754 14.1235 17.0052C15.4496 17.3901 16.8579 17.3901 18.184 17.0051C18.2856 16.9754 18.392 16.966 18.4973 16.9775C18.6025 16.9889 18.7044 17.021 18.7973 17.0719C18.8901 17.1227 18.972 17.1914 19.0383 17.2739C19.1046 17.3564 19.1539 17.4512 19.1836 17.5529C19.2132 17.6545 19.2225 17.7609 19.211 17.8662C19.1994 17.9714 19.1673 18.0733 19.1164 18.1661C19.0654 18.2589 18.9967 18.3407 18.9141 18.4069C18.8315 18.4732 18.7367 18.5225 18.6351 18.552C17.8289 18.7872 16.9934 18.9065 16.1537 18.9065Z" fill="#54233A"/>
</svg>
