<svg width="55" height="55" viewBox="0 0 55 55" fill="none" xmlns="http://www.w3.org/2000/svg">
<g clip-path="url(#clip0_2_482)">
<mask id="mask0_2_482" style="mask-type:luminance" maskUnits="userSpaceOnUse" x="0" y="0" width="55" height="55">
<path d="M0 0H55V55H0V0Z" fill="white"/>
</mask>
<g mask="url(#mask0_2_482)">
<path d="M32.4038 2.34493C29.7219 2.34493 26.2742 5.02112 23.4012 9.32993C20.0404 14.3711 21.854 17.9968 23.3115 20.9118C23.4214 21.1329 23.5861 21.3221 23.79 21.4614C23.9938 21.6007 24.23 21.6854 24.4759 21.7075C24.7218 21.7296 24.9692 21.6882 25.1946 21.5874C25.42 21.4867 25.6158 21.3298 25.7633 21.1318C29.2298 16.5118 34.7529 9.26914 35.7603 8.26033C35.895 8.12615 36.0018 7.96666 36.0745 7.79104C36.1473 7.61542 36.1846 7.42714 36.1844 7.23704C36.1844 3.6302 34.2319 2.34493 32.4038 2.34493ZM35.8457 15.364C34.0944 15.364 32.1187 17.0024 29.2385 20.8423C26.1642 24.9412 25.675 28.5336 27.6536 32.4907C27.7613 32.7056 27.9209 32.8903 28.1178 33.0281C28.3147 33.166 28.5429 33.2527 28.7816 33.2804C29.0204 33.3081 29.2623 33.276 29.4856 33.1869C29.7089 33.0978 29.9064 32.9545 30.0606 32.7701C32.5486 29.7827 37.5478 23.8427 38.655 22.734C38.7896 22.5998 38.8964 22.4403 38.9692 22.2647C39.0419 22.0891 39.0793 21.9008 39.0791 21.7107C39.0791 20.1418 39.0791 15.364 35.8457 15.364Z" fill="#FFCC4D"/>
<path d="M44.6862 18.1169C44.5937 17.9511 44.4695 17.8051 44.3205 17.6873C44.1716 17.5695 44.0009 17.4822 43.8182 17.4305C43.6355 17.3787 43.4444 17.3635 43.2559 17.3857C43.0673 17.4078 42.8849 17.467 42.7192 17.5597C32.3401 23.3245 22.7687 38.0399 19.0301 45.9411C20.243 31.1852 27.0905 16.9301 38.655 5.3656C38.7894 5.23122 38.896 5.07169 38.9687 4.89611C39.0414 4.72054 39.0789 4.53236 39.0789 4.34231C39.0789 4.15227 39.0414 3.96409 38.9687 3.78851C38.896 3.61293 38.7894 3.4534 38.655 3.31902C38.5206 3.18464 38.3611 3.07804 38.1855 3.00532C38.0099 2.93259 37.8218 2.89516 37.6317 2.89516C37.4417 2.89516 37.2535 2.93259 37.0779 3.00532C36.9023 3.07804 36.7428 3.18464 36.6084 3.31902C25.083 14.8444 18.043 28.962 16.338 43.6731C15.3625 35.426 14.9239 23.5402 18.6914 15.0615C18.8473 14.7107 18.8574 14.3123 18.7195 13.954C18.5816 13.5957 18.307 13.3068 17.9562 13.151C17.6053 12.9951 17.2069 12.9851 16.8486 13.1229C16.4903 13.2608 16.2015 13.5354 16.0457 13.8863C14.1279 18.2038 13.2305 23.2956 12.9179 28.3715C11.637 25.6447 10.1332 23.1581 7.92013 23.1581H7.85355C6.53645 23.1581 5.40605 23.8326 4.49421 25.6548C4.13671 26.3713 4.42763 26.9893 5.14263 27.3468C5.31264 27.4319 5.49775 27.4826 5.68739 27.4962C5.87702 27.5097 6.06747 27.4858 6.24784 27.4257C6.42822 27.3656 6.59499 27.2706 6.73863 27.146C6.88227 27.0215 6.99997 26.8699 7.085 26.6998C7.53513 25.7995 7.84342 25.5868 7.83908 25.5535C8.7596 25.8372 10.3633 29.4556 10.9683 30.8248C11.252 31.466 11.5096 32.0435 11.7311 32.4893C11.8334 32.6913 11.9824 32.8661 12.1656 32.9992C12.3488 33.1323 12.561 33.22 12.7847 33.2549C12.8224 40.431 13.795 47.0498 14.468 50.7551L14.497 50.9157C14.5653 51.2935 14.7809 51.6286 15.0963 51.8473C15.4117 52.0661 15.8011 52.1506 16.1788 52.0823C16.3489 52.0488 16.5114 51.984 16.6579 51.8913C16.8713 52.025 17.1168 52.099 17.3686 52.1055C17.6334 52.1055 17.8664 52.0143 18.0807 51.8913C18.2894 52.0249 18.5306 52.0989 18.7783 52.1055H18.8145C19.583 52.1055 20.2213 51.457 20.2633 50.6856C20.3458 49.1847 23.873 41.9826 29.1545 34.7023C29.3068 34.6877 29.4555 34.6476 29.5945 34.5836C29.9476 34.407 30.3428 34.1899 30.7639 33.9584C32.1143 33.2101 34.3737 31.961 35.2595 32.482C35.4766 32.6094 36.1843 33.2549 36.1843 36.1844C36.1843 36.5683 36.3368 36.9364 36.6083 37.2079C36.8797 37.4793 37.2478 37.6318 37.6317 37.6318C38.0156 37.6318 38.3837 37.4793 38.6552 37.2079C38.9266 36.9364 39.0791 36.5683 39.0791 36.1844C39.0791 32.9481 38.312 30.9218 36.7314 29.9897C35.5982 29.3224 34.3172 29.376 33.0551 29.7378C36.413 25.8082 40.2022 22.2622 44.1232 20.0824C44.2896 19.9908 44.4362 19.8671 44.5547 19.7185C44.6732 19.5699 44.7611 19.3994 44.8134 19.2168C44.8657 19.0341 44.8814 18.8429 44.8596 18.6541C44.8378 18.4654 44.7788 18.2828 44.6862 18.1169Z" fill="#77B255"/>
</g>
</g>
<defs>
<clipPath id="clip0_2_482">
<rect width="55" height="55" fill="white"/>
</clipPath>
</defs>
</svg>
