<svg width="55" height="55" viewBox="0 0 55 55" fill="none" xmlns="http://www.w3.org/2000/svg">
<path d="M29.2947 20.0794C29.7797 20.9524 30.6527 21.7284 31.6227 22.1164C34.1448 23.1834 35.9878 25.1235 37.0548 27.5485C38.1219 25.0265 36.8608 22.1164 34.3388 21.0494C32.5928 20.3704 31.5257 18.8183 31.3317 17.0723C34.8238 17.2663 38.3159 18.7213 41.0319 21.3404C39.8679 15.6173 34.3388 11.9312 28.6157 12.9982C28.6157 11.6402 28.3247 10.3792 27.9367 9.11816H24.9296C25.9966 10.1852 26.4817 11.5432 26.4817 12.9982C20.7586 11.8342 15.2295 15.6173 14.0654 21.3404C15.8115 19.5944 17.9455 18.3333 20.3705 17.5573C19.7885 18.3333 19.4005 19.4004 19.4005 20.4674C19.4005 23.1834 18.3335 25.7055 16.4905 27.5485C19.2065 27.5485 21.4376 25.3175 21.4376 22.6014C21.4376 20.4674 22.7956 18.7213 24.6386 17.9453C24.8326 21.7284 26.4817 25.0265 29.0037 27.5485C27.0637 25.6085 27.0637 22.4074 29.0037 20.4674C29.1007 20.3704 29.1977 20.2734 29.2947 20.0794Z" fill="#ACC448" stroke="#273637" stroke-miterlimit="10" stroke-linecap="round" stroke-linejoin="round"/>
<path d="M24.3475 15.5205C22.6985 15.5205 21.2435 16.3935 20.2734 17.5575M28.9066 15.7145C28.3246 17.2665 28.5186 18.8186 29.2946 20.1766C28.5186 18.8186 28.3246 17.1695 28.9066 15.7145Z" stroke="#273637" stroke-miterlimit="10" stroke-linecap="round" stroke-linejoin="round"/>
<path d="M33.2714 13.0952H32.6894C36.7635 13.8712 40.0615 17.0723 40.9345 21.3404C38.2185 18.6243 34.8234 17.2663 31.2344 17.0723C31.4284 18.8183 32.4954 20.3703 34.2414 21.0494C36.7635 22.1164 38.0245 25.0264 36.9575 27.5485C35.9875 25.2204 34.1444 23.1834 31.5254 22.1164C30.4584 21.7284 29.6823 20.9524 29.1973 20.0793C29.1003 20.1763 29.0033 20.3703 28.9063 20.4673C26.9663 22.4074 26.9663 25.6084 28.9063 27.5485C26.3843 25.0264 24.8323 21.7284 24.5412 17.9453C22.6982 18.6243 21.3402 20.4673 21.3402 22.6014C21.3402 25.3174 19.1091 27.5485 16.3931 27.5485C18.2361 25.7054 19.3032 23.2804 19.3032 20.4673C19.3032 19.4003 19.6912 18.4303 20.2732 17.5573C17.8481 18.2363 15.7141 19.5943 13.9681 21.3404C14.8411 17.0723 18.1391 13.9682 22.1162 13.0952H21.6312C14.1621 13.0952 8.14795 19.1093 8.14795 26.5785C8.14795 37.2487 16.7811 45.7848 27.3543 45.7848C38.0245 45.7848 46.5606 37.1517 46.5606 26.5785C46.7547 19.1093 40.7405 13.0952 33.2714 13.0952Z" fill="#CA5351" stroke="#273637" stroke-miterlimit="10" stroke-linecap="round" stroke-linejoin="round"/>
<path d="M43.845 26.5786C43.845 35.5998 36.4728 42.9719 27.4517 42.9719C36.5698 42.8749 43.845 35.5998 43.845 26.5786Z" stroke="#273637" stroke-width="0.5" stroke-miterlimit="10" stroke-linecap="round" stroke-linejoin="round"/>
<path d="M37.7337 36.7637C32.1076 42.3898 22.9894 42.3898 17.3633 36.7637C22.8924 42.3898 32.1076 42.3898 37.7337 36.7637Z" stroke="#273637" stroke-width="0.5" stroke-miterlimit="10" stroke-linecap="round" stroke-linejoin="round"/>
</svg>
