<svg width="38" height="38" viewBox="0 0 38 38" fill="none" xmlns="http://www.w3.org/2000/svg">
<path d="M33.3836 12.978L24.2479 11.6503L20.1641 3.37095C20.0525 3.14427 19.869 2.96076 19.6423 2.84922C19.0738 2.56857 18.383 2.80244 18.0987 3.37095L14.0148 11.6503L4.87916 12.978C4.62729 13.014 4.39701 13.1327 4.2207 13.3126C4.00755 13.5317 3.8901 13.8264 3.89414 14.1321C3.89819 14.4377 4.02341 14.7292 4.24229 14.9426L10.8521 21.3868L9.29048 30.4865C9.25386 30.6982 9.27728 30.9159 9.35809 31.115C9.43891 31.314 9.57387 31.4864 9.74769 31.6127C9.9215 31.7389 10.1272 31.8139 10.3415 31.8292C10.5558 31.8445 10.77 31.7994 10.96 31.6991L19.1314 27.4029L27.3028 31.6991C27.5259 31.8178 27.7849 31.8574 28.0332 31.8142C28.6593 31.7063 29.0803 31.1126 28.9723 30.4865L27.4107 21.3868L34.0205 14.9426C34.2004 14.7663 34.3191 14.536 34.3551 14.2841C34.4523 13.6544 34.0133 13.0715 33.3836 12.978V12.978Z" fill="#E8E8E8"/>
</svg>
