<svg width="38" height="38" viewBox="0 0 38 38" fill="none" xmlns="http://www.w3.org/2000/svg">
<path d="M33.4774 12.978L24.3417 11.6503L20.2578 3.37095C20.1463 3.14427 19.9628 2.96076 19.7361 2.84922C19.1676 2.56857 18.4767 2.80244 18.1925 3.37095L14.1086 11.6503L4.97291 12.978C4.72104 13.014 4.49076 13.1327 4.31445 13.3126C4.1013 13.5317 3.98385 13.8264 3.98789 14.1321C3.99194 14.4377 4.11716 14.7292 4.33604 14.9426L10.9458 21.3868L9.38423 30.4865C9.34761 30.6982 9.37103 30.9159 9.45184 31.115C9.53266 31.314 9.66762 31.4864 9.84144 31.6127C10.0153 31.7389 10.221 31.8139 10.4352 31.8292C10.6495 31.8445 10.8638 31.7994 11.0538 31.6991L19.2251 27.4029L27.3965 31.6991C27.6196 31.8179 27.8787 31.8574 28.1269 31.8143C28.753 31.7063 29.174 31.1126 29.0661 30.4865L27.5045 21.3868L34.1142 14.9426C34.2942 14.7663 34.4129 14.536 34.4489 14.2841C34.546 13.6544 34.1071 13.0715 33.4774 12.978V12.978Z" fill="#E8E8E8"/>
<path d="M33.4774 12.978L24.3417 11.6503L20.2578 3.37095C20.1463 3.14427 19.9628 2.96076 19.7361 2.84922C19.1676 2.56857 18.4767 2.80244 18.1925 3.37095L14.1086 11.6503L4.97291 12.978C4.72104 13.014 4.49076 13.1327 4.31445 13.3126C4.1013 13.5317 3.98385 13.8264 3.98789 14.1321C3.99194 14.4377 4.11716 14.7292 4.33604 14.9426L10.9458 21.3868L9.38423 30.4865C9.34761 30.6982 9.37103 30.9159 9.45184 31.115C9.53266 31.314 9.66762 31.4864 9.84144 31.6127C10.0153 31.7389 10.221 31.8139 10.4352 31.8292C10.6495 31.8445 10.8638 31.7994 11.0538 31.6991L19.2251 27.4029L27.3965 31.6991C27.6196 31.8179 27.8787 31.8574 28.1269 31.8143C28.753 31.7063 29.174 31.1126 29.0661 30.4865L27.5045 21.3868L34.1142 14.9426C34.2942 14.7663 34.4129 14.536 34.4489 14.2841C34.546 13.6544 34.1071 13.0715 33.4774 12.978V12.978Z" fill="#FADB14"/>
</svg>
