<svg width="17" height="209" viewBox="0 0 17 209" fill="none" xmlns="http://www.w3.org/2000/svg">
<line x1="8.75" y1="8.75" x2="8.74999" y2="197.25" stroke="#C6C6C6" stroke-width="1.5" stroke-linecap="round" stroke-dasharray="5 10"/>
<circle cx="8.5" cy="104.5" r="8.5" fill="#5EC401"/>
<path d="M6.76417 106.598L4.88459 104.719C4.78339 104.617 4.646 104.56 4.50271 104.56C4.35943 104.56 4.22204 104.617 4.12084 104.719C3.90959 104.93 3.90959 105.271 4.12084 105.483L6.38501 107.747C6.59626 107.958 6.93751 107.958 7.14876 107.747L12.8796 102.016C13.0908 101.805 13.0908 101.463 12.8796 101.252C12.7784 101.151 12.641 101.094 12.4977 101.094C12.3544 101.094 12.217 101.151 12.1158 101.252L6.76417 106.598Z" fill="white"/>
<circle cx="8.5" cy="200.5" r="8.5" fill="#5EC401"/>
<path d="M6.76417 202.598L4.88459 200.719C4.78339 200.617 4.646 200.56 4.50271 200.56C4.35943 200.56 4.22204 200.617 4.12084 200.719C3.90959 200.93 3.90959 201.271 4.12084 201.483L6.38501 203.747C6.59626 203.958 6.93751 203.958 7.14876 203.747L12.8796 198.016C13.0908 197.805 13.0908 197.463 12.8796 197.252C12.7784 197.151 12.641 197.094 12.4977 197.094C12.3544 197.094 12.217 197.151 12.1158 197.252L6.76417 202.598Z" fill="white"/>
<circle cx="8.5" cy="8.5" r="8.5" fill="#5EC401"/>
<path d="M6.76417 10.5984L4.88459 8.71885C4.78339 8.61742 4.646 8.56042 4.50271 8.56042C4.35943 8.56042 4.22204 8.61742 4.12084 8.71885C3.90959 8.9301 3.90959 9.27135 4.12084 9.4826L6.38501 11.7468C6.59626 11.958 6.93751 11.958 7.14876 11.7468L12.8796 6.01593C13.0908 5.80468 13.0908 5.46343 12.8796 5.25218C12.7784 5.15075 12.641 5.09375 12.4977 5.09375C12.3544 5.09375 12.217 5.15075 12.1158 5.25218L6.76417 10.5984Z" fill="white"/>
</svg>
