<svg width="17" height="300" viewBox="0 0 17 300" fill="none" xmlns="http://www.w3.org/2000/svg">
<line x1="8.75" y1="8.75" x2="8.74999" y2="298.25" stroke="#C6C6C6" stroke-width="1.5" stroke-linecap="round" stroke-dasharray="5 10"/>
<circle cx="8.5" cy="291.5" r="8.5" fill="#5EC401"/>
<path d="M6.76417 293.599L4.88459 291.72C4.78339 291.618 4.646 291.561 4.50271 291.561C4.35943 291.561 4.22204 291.618 4.12084 291.72C3.90959 291.931 3.90959 292.272 4.12084 292.484L6.38501 294.748C6.59626 294.959 6.93751 294.959 7.14876 294.748L12.8796 289.017C13.0908 288.806 13.0908 288.464 12.8796 288.253C12.7784 288.152 12.641 288.095 12.4977 288.095C12.3544 288.095 12.217 288.152 12.1158 288.253L6.76417 293.599Z" fill="white"/>
<circle cx="8.5" cy="104.5" r="8.5" fill="#5EC401"/>
<path d="M6.76417 106.599L4.88459 104.72C4.78339 104.618 4.646 104.561 4.50271 104.561C4.35943 104.561 4.22204 104.618 4.12084 104.72C3.90959 104.931 3.90959 105.272 4.12084 105.484L6.38501 107.748C6.59626 107.959 6.93751 107.959 7.14876 107.748L12.8796 102.017C13.0908 101.806 13.0908 101.464 12.8796 101.253C12.7784 101.152 12.641 101.095 12.4977 101.095C12.3544 101.095 12.217 101.152 12.1158 101.253L6.76417 106.599Z" fill="white"/>
<circle cx="8.5" cy="200.5" r="8.5" fill="#5EC401"/>
<path d="M6.76417 202.599L4.88459 200.72C4.78339 200.618 4.646 200.561 4.50271 200.561C4.35943 200.561 4.22204 200.618 4.12084 200.72C3.90959 200.931 3.90959 201.272 4.12084 201.484L6.38501 203.748C6.59626 203.959 6.93751 203.959 7.14876 203.748L12.8796 198.017C13.0908 197.806 13.0908 197.464 12.8796 197.253C12.7784 197.152 12.641 197.095 12.4977 197.095C12.3544 197.095 12.217 197.152 12.1158 197.253L6.76417 202.599Z" fill="white"/>
<circle cx="8.5" cy="8.5" r="8.5" fill="#5EC401"/>
<path d="M6.76417 10.5994L4.88459 8.71982C4.78339 8.61839 4.646 8.56139 4.50271 8.56139C4.35943 8.56139 4.22204 8.61839 4.12084 8.71982C3.90959 8.93107 3.90959 9.27232 4.12084 9.48357L6.38501 11.7477C6.59626 11.959 6.93751 11.959 7.14876 11.7477L12.8796 6.01691C13.0908 5.80566 13.0908 5.46441 12.8796 5.25316C12.7784 5.15173 12.641 5.09473 12.4977 5.09473C12.3544 5.09473 12.217 5.15173 12.1158 5.25316L6.76417 10.5994Z" fill="white"/>
</svg>
