<svg width="28" height="28" viewBox="0 0 28 28" fill="none" xmlns="http://www.w3.org/2000/svg">
<path fill-rule="evenodd" clip-rule="evenodd" d="M18.6667 4.66634V3.49967C18.6667 2.85801 19.1917 2.33301 19.8333 2.33301C20.475 2.33301 21 2.85801 21 3.49967V4.66634H22.1667C23.45 4.66634 24.5 5.71634 24.5 6.99967V23.333C24.5 24.6163 23.45 25.6663 22.1667 25.6663H5.83333C4.53833 25.6663 3.5 24.6163 3.5 23.333L3.51167 6.99967C3.51167 5.71634 4.53833 4.66634 5.83333 4.66634H7V3.49967C7 2.85801 7.525 2.33301 8.16667 2.33301C8.80833 2.33301 9.33333 2.85801 9.33333 3.49967V4.66634H18.6667ZM15.1667 15.1663H18.6667C19.3083 15.1663 19.8333 15.6913 19.8333 16.333V19.833C19.8333 20.4747 19.3083 20.9997 18.6667 20.9997H15.1667C14.525 20.9997 14 20.4747 14 19.833V16.333C14 15.6913 14.525 15.1663 15.1667 15.1663ZM22.1667 9.33301H5.83333V6.99967H22.1667V9.33301ZM7 23.333H21C21.6417 23.333 22.1667 22.8557 22.1667 22.2724V11.6663H5.83333V22.2724C5.83333 22.8557 6.35833 23.333 7 23.333Z" fill="#37474F"/>
</svg>
