<svg width="23" height="23" viewBox="0 0 23 23" fill="none" xmlns="http://www.w3.org/2000/svg">
<path fill-rule="evenodd" clip-rule="evenodd" d="M11.4998 1.91699C7.79109 1.91699 4.7915 4.91658 4.7915 8.62533C4.7915 12.6216 9.02734 18.132 10.7715 20.2307C11.1548 20.6907 11.8544 20.6907 12.2378 20.2307C13.9723 18.132 18.2082 12.6216 18.2082 8.62533C18.2082 4.91658 15.2086 1.91699 11.4998 1.91699ZM6.70817 8.62533C6.70817 5.98033 8.85484 3.83366 11.4998 3.83366C14.1448 3.83366 16.2915 5.98033 16.2915 8.62533C16.2915 11.3853 13.5315 15.5157 11.4998 18.0937C9.5065 15.5349 6.70817 11.3566 6.70817 8.62533ZM9.104 8.62533C9.104 9.94783 10.1773 11.0212 11.4998 11.0212C12.8223 11.0212 13.8957 9.94783 13.8957 8.62533C13.8957 7.30283 12.8223 6.22949 11.4998 6.22949C10.1773 6.22949 9.104 7.30283 9.104 8.62533Z" fill="#37474F"/>
<mask id="mask0_4_3806" style="mask-type:luminance" maskUnits="userSpaceOnUse" x="4" y="1" width="15" height="20">
<path fill-rule="evenodd" clip-rule="evenodd" d="M11.4998 1.91699C7.79109 1.91699 4.7915 4.91658 4.7915 8.62533C4.7915 12.6216 9.02734 18.132 10.7715 20.2307C11.1548 20.6907 11.8544 20.6907 12.2378 20.2307C13.9723 18.132 18.2082 12.6216 18.2082 8.62533C18.2082 4.91658 15.2086 1.91699 11.4998 1.91699ZM6.70817 8.62533C6.70817 5.98033 8.85484 3.83366 11.4998 3.83366C14.1448 3.83366 16.2915 5.98033 16.2915 8.62533C16.2915 11.3853 13.5315 15.5157 11.4998 18.0937C9.5065 15.5349 6.70817 11.3566 6.70817 8.62533ZM9.104 8.62533C9.104 9.94783 10.1773 11.0212 11.4998 11.0212C12.8223 11.0212 13.8957 9.94783 13.8957 8.62533C13.8957 7.30283 12.8223 6.22949 11.4998 6.22949C10.1773 6.22949 9.104 7.30283 9.104 8.62533Z" fill="white"/>
</mask>
<g mask="url(#mask0_4_3806)">
</g>
</svg>
