<svg width="77" height="77" viewBox="0 0 77 77" fill="none" xmlns="http://www.w3.org/2000/svg">
<circle cx="38.5" cy="38.5" r="38.5" fill="#D9D9D9"/>
<g clip-path="url(#clip0_2_1129)">
<path d="M52.75 23.875H47.9375V18.375H42.4375V23.875H24.5625L18.375 35.5625H23.875V59.625H54.125V35.5625H59.625L52.75 23.875Z" fill="#E3FCFD"/>
<path d="M46.5625 40.375C46.5625 46.0704 39 50.6875 39 50.6875C39 50.6875 31.4375 46.0704 31.4375 40.375C31.4375 34.6796 39 30.0625 39 30.0625C39 30.0625 46.5625 34.6796 46.5625 40.375Z" fill="#42EAF5"/>
<path d="M60.8077 34.8653L53.9336 23.1778C53.8122 22.9714 53.6391 22.8003 53.4312 22.6814C53.2234 22.5625 52.9881 22.5 52.7487 22.5H49.3116V18.375C49.3116 18.0104 49.1668 17.6606 48.909 17.4028C48.6511 17.1449 48.3014 17 47.9368 17H42.4375C42.0728 17 41.7232 17.1449 41.4653 17.4028C41.2075 17.6606 41.0627 18.0104 41.0627 18.375V22.5H24.5647C24.3148 22.5 24.0696 22.5681 23.8555 22.6971C23.6414 22.826 23.4666 23.0109 23.3497 23.2318L17.163 34.9193C17.0549 35.1292 17.0022 35.3632 17.01 35.5991C17.0179 35.835 17.0859 36.065 17.2076 36.2673C17.3294 36.4695 17.5008 36.6372 17.7057 36.7545C17.9105 36.8719 18.142 36.9348 18.378 36.9375H22.5025V59.625C22.5025 59.9896 22.6473 60.3394 22.9052 60.5972C23.163 60.8551 23.5127 61 23.8773 61H54.1235C54.4882 61 54.8379 60.8551 55.0957 60.5972C55.3535 60.3394 55.4984 59.9896 55.4984 59.625V36.9375H59.6229C59.8641 36.9347 60.1003 36.8689 60.3083 36.7466C60.5162 36.6243 60.6886 36.4499 60.8083 36.2405C60.9281 36.0311 60.991 35.794 60.9909 35.5528C60.9908 35.3116 60.9276 35.0746 60.8077 34.8653ZM54.1235 34.1875C53.7589 34.1875 53.4092 34.3324 53.1514 34.5903C52.8936 34.8481 52.7487 35.1979 52.7487 35.5625V58.25H25.2521V35.5625C25.2521 35.1979 25.1073 34.8481 24.8495 34.5903C24.5917 34.3324 24.242 34.1875 23.8773 34.1875H20.6618L25.3925 25.25H41.0627V25.9375C41.0623 26.1183 41.0975 26.2974 41.1665 26.4646C41.2354 26.6317 41.3366 26.7837 41.4643 26.9116C41.592 27.0396 41.7437 27.1412 41.9107 27.2105C42.0777 27.2797 42.2567 27.3154 42.4375 27.3154C42.6183 27.3154 42.7973 27.2797 42.9643 27.2105C43.1314 27.1412 43.2831 27.0396 43.4108 26.9116C43.5385 26.7837 43.6397 26.6317 43.7086 26.4646C43.7775 26.2974 43.8127 26.1183 43.8123 25.9375V19.75H46.562V25.9375C46.562 26.3021 46.7069 26.6518 46.9647 26.9096C47.2225 27.1675 47.5722 27.3123 47.9368 27.3123C48.3014 27.3123 48.6511 27.1675 48.909 26.9096C49.1668 26.6518 49.3116 26.3021 49.3116 25.9375V25.25H51.9626L57.2189 34.1875H54.1235Z" fill="#007DA1"/>
<path d="M39.7165 28.8889C39.5008 28.7572 39.2529 28.6875 39.0002 28.6875C38.7474 28.6875 38.4996 28.7572 38.2839 28.8889C37.9482 29.094 30.0638 33.9817 30.0638 40.375C30.0638 45.7631 35.6636 50.0815 37.6253 51.4291V53.4375C37.6249 53.6183 37.6602 53.7974 37.7291 53.9646C37.798 54.1317 37.8992 54.2836 38.0269 54.4116C38.1546 54.5396 38.3063 54.6412 38.4733 54.7104C38.6403 54.7797 38.8194 54.8154 39.0002 54.8154C39.181 54.8154 39.36 54.7797 39.527 54.7104C39.694 54.6412 39.8457 54.5396 39.9734 54.4116C40.1011 54.2836 40.2023 54.1317 40.2712 53.9646C40.3401 53.7974 40.3754 53.6183 40.375 53.4375V51.4291C42.3368 50.0815 47.9365 45.7631 47.9365 40.375C47.9365 33.9817 40.0521 29.094 39.7165 28.8889ZM40.375 47.9818V44.2706L42.162 41.8876C42.2704 41.7432 42.3492 41.5789 42.3941 41.404C42.4389 41.2291 42.4489 41.0471 42.4234 40.8684C42.3979 40.6897 42.3375 40.5177 42.2456 40.3623C42.1536 40.207 42.032 40.0712 41.8876 39.9629C41.7432 39.8545 41.5788 39.7757 41.404 39.7308C41.2291 39.686 41.0471 39.676 40.8683 39.7015C40.6896 39.727 40.5177 39.7874 40.3623 39.8794C40.2069 39.9713 40.0712 40.0929 39.9628 40.2373L39.0002 41.521L38.0375 40.2373C37.9292 40.0929 37.7934 39.9713 37.6381 39.8794C37.4827 39.7874 37.3107 39.727 37.132 39.7015C36.9533 39.676 36.7713 39.686 36.5964 39.7308C36.4215 39.7757 36.2572 39.8545 36.1128 39.9629C35.9684 40.0712 35.8467 40.207 35.7548 40.3623C35.6629 40.5177 35.6024 40.6897 35.5769 40.8684C35.5514 41.0471 35.5614 41.2291 35.6063 41.404C35.6511 41.5789 35.73 41.7432 35.8383 41.8876L37.6253 44.2706V47.9817C35.5931 46.3133 32.8134 43.4686 32.8134 40.375C32.8134 36.4759 37.2333 32.9649 39.0002 31.7175C40.7677 32.9656 45.1869 36.4762 45.1869 40.375C45.1869 43.4687 42.4071 46.3136 40.375 47.9818ZM29.3752 52.7494C29.1031 52.7494 28.8371 52.8301 28.6109 52.9812C28.3847 53.1323 28.2084 53.3471 28.1043 53.5985C28.0001 53.8498 27.9729 54.1264 28.0259 54.3932C28.079 54.6601 28.21 54.9052 28.4023 55.0976C28.5947 55.2899 28.8398 55.421 29.1066 55.4741C29.3735 55.5271 29.65 55.4999 29.9014 55.3958C30.1527 55.2917 30.3676 55.1154 30.5187 54.8892C30.6699 54.663 30.7506 54.397 30.7506 54.125C30.7495 53.7605 30.6043 53.4112 30.3466 53.1535C30.0889 52.8958 29.7396 52.7505 29.3752 52.7494Z" fill="#007DA1"/>
</g>
<defs>
<clipPath id="clip0_2_1129">
<rect width="44" height="44" fill="white" transform="translate(17 17)"/>
</clipPath>
</defs>
</svg>
