<svg width="77" height="77" viewBox="0 0 77 77" fill="none" xmlns="http://www.w3.org/2000/svg">
<path d="M75.9305 38.4999C75.9305 59.1896 59.1468 75.9304 38.4999 75.9304C17.7302 75.9304 1.06934 59.0695 1.06934 38.4999C1.06934 17.8275 17.8275 1.06934 38.4999 1.06934C59.1723 1.06934 75.9305 17.8275 75.9305 38.4999Z" fill="#12B8A7"/>
<mask id="mask0_2_1163" style="mask-type:luminance" maskUnits="userSpaceOnUse" x="1" y="1" width="75" height="75">
<path d="M75.9305 38.4999C75.9305 58.8521 59.504 75.9304 38.4999 75.9304C17.7984 75.9304 1.06934 59.1331 1.06934 38.4999C1.06934 17.8275 17.8275 1.06934 38.4999 1.06934C59.1723 1.06934 75.9305 17.8275 75.9305 38.4999Z" fill="white"/>
</mask>
<g mask="url(#mask0_2_1163)">
<path d="M70.4729 75.9304H6.52637L12.1344 58.9443C12.9881 56.3618 15.4084 54.6113 18.1206 54.6113H58.8788C61.6018 54.6113 64.0114 56.3618 64.865 58.9443L70.4729 75.9304Z" fill="#445A6B"/>
<path d="M46.0736 54.6108H30.9463V75.9302H46.0736V54.6108Z" fill="#D2DBE0"/>
<path d="M46.526 54.615L46.6767 65.272L38.5062 60.1483L30.3378 65.272L30.1592 54.615L33.9889 52.8633H43.0139L46.526 54.615Z" fill="#B9C1C6"/>
<path d="M36.6688 65.4746C36.7426 65.7122 36.9624 65.874 37.2111 65.874H39.7916C40.0403 65.874 40.2601 65.7122 40.334 65.4746L41.0059 63.3133C41.1196 62.9477 40.8464 62.5767 40.4635 62.5767H36.5392C36.1563 62.5767 35.8832 62.9477 35.9969 63.3133L36.6688 65.4746ZM40.2304 66.823C40.2001 66.5552 39.9736 66.3529 39.7041 66.3529H37.2976C37.0281 66.3529 36.8017 66.5552 36.7714 66.823L35.6191 75.9304H41.3827L40.2304 66.823Z" fill="#EE432C"/>
<path d="M35.218 75.9304H28.4092L22.293 67.4594L27.0346 64.6037L22.6659 62.1956C25.5108 59.2334 27.3543 56.772 29.3788 54.9073C30.4124 53.9483 31.4886 53.1491 32.7672 52.5205C32.6607 52.659 32.5435 52.7975 32.4369 52.9467C31.9893 53.5434 31.6591 54.2147 31.4352 54.9073C30.3086 58.3972 31.8686 60.3168 35.218 75.9304ZM54.7175 67.4593L48.5905 75.9304H41.7817L45.7135 59.1588C46.0544 57.7415 46.0118 56.2605 45.5643 54.9073C45.3405 54.2146 45.0102 53.5433 44.5627 52.9467C44.4561 52.7975 44.3388 52.659 44.2323 52.5205C45.5216 53.1491 46.5978 53.9483 47.6314 54.9073C49.6453 56.772 51.4887 59.2441 54.3443 62.1956L49.965 64.6037L54.7175 67.4593Z" fill="#112B3F"/>
<path d="M45.0587 42.6543V52.0931C45.0587 55.9459 42.2111 59.0678 38.6968 59.0678H38.3064C34.7921 59.0678 31.9443 55.9459 31.9443 52.0931V42.6543H45.0587Z" fill="#FAB687"/>
<path d="M38.5262 53.2084C35.2188 53.2084 32.3946 50.9045 32.1041 47.8645C32.0551 47.3516 32.0303 46.8341 32.0303 46.3127C32.0303 45.7951 32.0548 45.2818 32.103 44.7734C32.3912 41.7328 35.2173 39.4287 38.525 39.4287H38.5263C42.0865 39.4287 44.9726 42.0918 44.9726 45.377V47.2601C44.9725 50.5453 42.0864 53.2084 38.5262 53.2084Z" fill="#F8A771"/>
<path d="M55.0219 30.9016C55.0219 32.2847 54.9031 33.6461 54.687 34.9537C53.1419 44.1383 46.4858 51.043 38.5004 51.043C30.5151 51.043 23.8591 44.1384 22.314 34.9537C22.0978 33.6461 21.979 32.2846 21.979 30.9016C21.979 25.326 23.8375 20.2907 26.8414 16.6385C29.8345 13.0078 33.9513 10.7603 38.5005 10.7603C43.0497 10.7603 47.1666 13.0078 50.1596 16.6385C53.1635 20.2907 55.0219 25.326 55.0219 30.9016Z" fill="#FAB687"/>
<path d="M26.606 13.9298C26.0004 12.6005 26.3497 10.9594 27.2615 9.81834C28.1733 8.67724 29.5669 7.99568 30.9975 7.70062C32.4281 7.40556 33.9069 7.46428 35.3627 7.58298C37.7636 7.77869 40.1515 8.13396 42.5053 8.64569C44.8966 9.16555 47.2719 9.85448 49.4358 10.9975C51.5996 12.1405 53.5535 13.7647 54.8091 15.8652C56.3715 18.4793 56.7546 21.6441 56.6249 24.6869C56.4312 29.2293 55.0662 33.6239 52.8501 37.5937C52.4506 34.0407 52.0512 30.4877 51.6519 26.9347C51.5088 25.6614 51.3468 24.3345 50.6404 23.2655C49.8341 22.0455 48.4177 21.3425 46.9846 21.0514C45.5514 20.7603 44.0739 20.8282 42.6115 20.8338C39.7062 20.8452 36.8002 20.6049 33.936 20.1177C31.915 19.774 29.1825 18.7637 27.4638 20.4647C26.6883 21.2322 26.4502 22.3746 26.2481 23.4467C25.3643 28.1348 24.4806 32.823 23.5968 37.5112C21.1384 32.4563 20.0131 26.8176 20.4411 21.2128C20.5757 19.4499 20.876 17.6454 21.8007 16.1382C22.7253 14.6311 24.8421 13.8082 26.606 13.9298Z" fill="#663430"/>
<path d="M22.0317 32.1611C22.0809 33.1089 22.1638 34.047 22.3137 34.9537C23.8589 44.1384 30.515 51.0429 38.5002 51.0429C46.4855 51.0429 53.1418 44.1384 54.6869 34.9537C54.8368 34.047 54.9197 33.1089 54.9687 32.1611H22.0317Z" fill="#FAB687"/>
<path d="M32.6329 34.4221C33.5744 34.4221 34.3376 33.6589 34.3376 32.7174C34.3376 31.7759 33.5744 31.0127 32.6329 31.0127C31.6914 31.0127 30.9282 31.7759 30.9282 32.7174C30.9282 33.6589 31.6914 34.4221 32.6329 34.4221Z" fill="#3D2F46"/>
<path d="M43.5655 34.4221C44.507 34.4221 45.2702 33.6589 45.2702 32.7174C45.2702 31.7759 44.507 31.0127 43.5655 31.0127C42.6241 31.0127 41.8608 31.7759 41.8608 32.7174C41.8608 33.6589 42.6241 34.4221 43.5655 34.4221Z" fill="#3D2F46"/>
<path d="M34.0434 28.5719L34.0137 28.4201C33.9316 28.0011 33.5253 27.7279 33.1063 27.81L29.4899 28.5185C29.0709 28.6006 28.7978 29.0069 28.8798 29.4258L28.9095 29.5776C28.9915 29.9967 29.3978 30.2698 29.8168 30.1878L33.4333 29.4793C33.8523 29.3971 34.1254 28.9908 34.0434 28.5719ZM46.708 28.5185L43.0915 27.81C42.6725 27.7279 42.2662 28.001 42.1842 28.4201L42.1545 28.5719C42.0723 28.9909 42.3455 29.3972 42.7646 29.4793L46.3809 30.1878C46.7999 30.2698 47.2062 29.9967 47.2883 29.5776L47.3181 29.4258C47.4001 29.0068 47.127 28.6005 46.708 28.5185Z" fill="#3D2F46"/>
<path d="M44.1019 42.4102C44.0247 43.7125 43.4748 44.8703 42.6258 45.7385C42.6066 45.7578 42.5969 45.7675 42.5776 45.7867C42.4715 45.8929 42.3654 45.999 42.24 46.0955C41.391 46.8383 40.2815 47.3304 39.0563 47.4461C38.8827 47.4557 38.6897 47.4654 38.5064 47.4654C38.2363 47.4654 37.9759 47.4461 37.7154 47.4171C37.4742 47.3785 37.2427 47.3302 37.0111 47.2628C36.9918 47.2628 36.9822 47.2531 36.9629 47.2531C36.9243 47.2435 36.8761 47.2243 36.8375 47.2145C34.6764 46.5874 33.0268 44.7159 32.9014 42.4102H44.1019Z" fill="#663430"/>
<path d="M42.6257 45.7387C42.6064 45.7581 42.5968 45.7677 42.5774 45.7869C42.4713 45.8931 42.3653 45.9992 42.2398 46.0957C41.3909 46.8385 40.2813 47.3306 39.0562 47.4463C38.8825 47.4559 38.6896 47.4656 38.5063 47.4656C38.2361 47.4656 37.9757 47.4463 37.7152 47.4173C37.4547 47.3787 37.2039 47.3305 36.9531 47.263L36.9627 47.2534C37.0882 46.9446 37.2907 46.6648 37.532 46.4044C38.1688 45.7002 39.0949 45.2564 40.0499 45.1793C40.8025 45.1311 41.5548 45.324 42.2688 45.5941C42.3845 45.6422 42.51 45.6809 42.6257 45.7387Z" fill="#EF4F63"/>
<path d="M54.2243 36.444C56.0978 36.444 57.6166 34.4828 57.6166 32.0636C57.6166 29.6443 56.0978 27.6831 54.2243 27.6831C52.3508 27.6831 50.832 29.6443 50.832 32.0636C50.832 34.4828 52.3508 36.444 54.2243 36.444Z" fill="#FAB687"/>
<path d="M22.7775 36.444C24.651 36.444 26.1698 34.4828 26.1698 32.0636C26.1698 29.6443 24.651 27.6831 22.7775 27.6831C20.904 27.6831 19.3853 29.6443 19.3853 32.0636C19.3853 34.4828 20.904 36.444 22.7775 36.444Z" fill="#FAB687"/>
</g>
</svg>
