<svg width="77" height="77" viewBox="0 0 77 77" fill="none" xmlns="http://www.w3.org/2000/svg">
<g clip-path="url(#clip0_2_1085)">
<path d="M38.5 77C59.763 77 77 59.763 77 38.5C77 17.237 59.763 0 38.5 0C17.237 0 0 17.237 0 38.5C0 59.763 17.237 77 38.5 77Z" fill="#32BEA6"/>
<path d="M38.5015 60.8999H60.9001L58.1001 53.1999C57.6695 52.2668 56.9116 51.5241 55.97 51.1125L46.9001 47.5999L45.5001 46.8999L38.5001 52.502L31.5001 46.8999L30.1001 47.5999L21.0302 51.1125C20.0886 51.5241 19.3307 52.2668 18.9001 53.1999L16.1001 60.8999H38.4987L38.5001 60.902L38.5015 60.8999Z" fill="white"/>
<path d="M52.5001 56.7001V49.7022L49.0001 48.3022V54.6001H28.0001V48.3022L24.5001 49.7022V56.7001L23.1001 60.9022H53.9001L52.5001 56.7001Z" fill="#0484AB"/>
<path d="M30.1001 58.1001H46.9001V60.9001H30.1001V58.1001Z" fill="#21B2D1"/>
<path d="M40.3585 47.5977H36.6415C36.3454 47.5977 36.0525 47.5352 35.7823 47.414C35.5121 47.2929 35.2705 47.116 35.0735 46.8949L31.5 44.0977V47.2477C31.5 47.2477 31.5 52.4977 38.5 52.4977C45.5 52.4977 45.5 47.2477 45.5 47.2477V44.0977L41.9265 46.8949C41.7295 47.116 41.4879 47.2929 41.2177 47.414C40.9475 47.5352 40.6546 47.5977 40.3585 47.5977Z" fill="#F7B4B4"/>
<path d="M35.0735 46.8973L31.5 44.1001V47.2501C31.5 47.2501 31.5 52.5001 38.5 52.5001V47.6001H36.6415C36.3454 47.6002 36.0525 47.5376 35.7823 47.4165C35.5121 47.2953 35.2705 47.1184 35.0735 46.8973Z" fill="#FBC8C8"/>
<path d="M50.4002 33.0555C50.4002 32.2778 49.7002 31.5001 49.0002 31.5001C48.3002 31.5001 48.3002 32.2778 48.3002 32.2778V31.5001C48.2974 29.9993 48.2533 28.6196 48.0678 27.3862C45.5723 28.3907 41.6068 28.7001 38.5002 28.7001C35.3936 28.7001 31.4281 28.3907 28.9326 27.3862C28.7471 28.6196 28.703 29.9993 28.7002 31.5001V37.098L31.5002 44.098L35.0737 46.8952C35.2707 47.1163 35.5123 47.2933 35.7825 47.4144C36.0527 47.5355 36.3456 47.5981 36.6417 47.598H40.3587C40.9579 47.598 41.5284 47.3425 41.9267 46.8952L45.5002 44.098L47.7451 38.4861C49.7296 38.3433 50.4002 35.3333 50.4002 33.0555Z" fill="#FBC8C8"/>
<path d="M28.7001 31.5001V32.2778C28.7001 32.2778 28.7001 31.5001 28.0001 31.5001C27.3001 31.5001 26.6001 32.2778 26.6001 33.0555C26.6001 35.3326 27.2707 38.3433 29.2552 38.4861L31.5001 44.098L35.0736 46.8952C35.2706 47.1163 35.5122 47.2933 35.7824 47.4144C36.0526 47.5355 36.3455 47.5981 36.6416 47.598H38.5001V28.7001C35.3935 28.7001 31.428 28.3907 28.9325 27.3862C28.747 28.6196 28.7029 29.9993 28.7001 31.5001Z" fill="#FBD7D7"/>
<path d="M35 39.8979H42C42 39.8979 42 41.9979 38.5 41.9979C35 41.9979 35 39.8979 35 39.8979Z" fill="#F79392"/>
<path d="M36.3959 32.9254C36.3959 32.5541 36.2484 32.198 35.9858 31.9354C35.7233 31.6729 35.3672 31.5254 34.9959 31.5254H34.9917C34.9924 31.5401 34.9959 31.5541 34.9959 31.5688C34.9959 31.9394 34.849 32.2948 34.5873 32.5573C34.3257 32.8197 33.9707 32.9677 33.6001 32.9688C33.6059 33.3395 33.7586 33.6928 34.0249 33.9509C34.2911 34.209 34.649 34.3507 35.0197 34.345C35.3904 34.3392 35.7437 34.1864 36.0018 33.9202C36.2599 33.654 36.4017 33.2961 36.3959 32.9254ZM43.391 32.9254C43.391 32.5541 43.2435 32.198 42.9809 31.9354C42.7184 31.6729 42.3623 31.5254 41.991 31.5254H41.9868C41.9875 31.5401 41.991 31.5541 41.991 31.5688C41.991 31.9394 41.8441 32.2948 41.5824 32.5573C41.3208 32.8197 40.9658 32.9677 40.5952 32.9688C40.601 33.3395 40.7538 33.6928 41.02 33.9509C41.2862 34.209 41.6441 34.3507 42.0148 34.345C42.3855 34.3392 42.7388 34.1864 42.9969 33.9202C43.255 33.654 43.3968 33.2961 43.391 32.9254Z" fill="#3E3E3F"/>
<path d="M32.8999 39.9H38.4999C38.4999 36.7164 34.2999 37.247 32.8999 39.9ZM44.0999 39.9H38.4999C38.4999 36.7164 42.6999 37.247 44.0999 39.9ZM46.4582 31.045C47.2499 34.23 46.8999 38.514 46.8999 39.2H47.5999L48.2999 37.8C48.2999 37.212 48.6877 33.292 48.8858 30.7041C48.1221 30.8301 47.3094 30.9449 46.4582 31.045ZM30.5416 31.045C29.7297 30.9498 28.92 30.8361 28.1133 30.7041C28.3121 33.292 28.6999 37.212 28.6999 37.8L29.3999 39.2H30.0999C30.0999 38.514 29.7499 34.23 30.5416 31.045Z" fill="#84462D"/>
<path d="M56 28.0002C56 29.5465 48.1649 31.5002 38.5 31.5002C28.8351 31.5002 21 29.5465 21 28.0002C21 26.4539 28.8351 25.2002 38.5 25.2002C48.1649 25.2002 56 26.4539 56 28.0002Z" fill="#F4D0A1"/>
<path d="M48.2998 24.5001C48.3278 19.5672 44.0102 16.1001 38.4998 16.1001C32.9894 16.1001 28.6718 19.5672 28.6998 24.5001C28.7061 25.6075 28.6998 25.9001 28.6998 27.3001C31.1764 28.3781 35.3001 28.7001 38.4998 28.7001C41.6995 28.7001 45.8232 28.3781 48.2998 27.3001C48.2998 25.9001 48.2935 25.6075 48.2998 24.5001Z" fill="#F8E1C2"/>
<path d="M21 28.0002C21 29.5465 28.8351 31.5002 38.5 31.5002V25.2002C28.8351 25.2002 21 26.4539 21 28.0002Z" fill="#F8E1C2"/>
<path d="M28.6998 24.5001C28.7061 25.6075 28.6998 25.9001 28.6998 27.3001C31.1764 28.3781 35.3001 28.7001 38.4998 28.7001V16.1001C32.9894 16.1001 28.6718 19.5672 28.6998 24.5001Z" fill="#FCF1E2"/>
<path d="M46.9001 47.6002L45.5001 46.2002L38.5001 52.5002L43.4001 56.0002L46.9001 47.6002ZM30.1001 47.6002L31.5001 46.2002L38.5001 52.5002L33.6001 56.0002L30.1001 47.6002Z" fill="#E2E4E5"/>
</g>
<defs>
<clipPath id="clip0_2_1085">
<rect width="77" height="77" fill="white"/>
</clipPath>
</defs>
</svg>
