<svg width="16" height="16" viewBox="0 0 16 16" fill="none" xmlns="http://www.w3.org/2000/svg">
<path d="M14.7915 6.99997C15.3415 6.99997 15.7915 7.44997 15.7915 7.99997C15.7915 8.54997 15.3415 8.99997 14.7915 8.99997H3.62148L8.49148 13.89C8.88148 14.28 8.88148 14.91 8.49148 15.3C8.30465 15.4872 8.051 15.5925 7.78648 15.5925C7.52197 15.5925 7.26832 15.4872 7.08148 15.3L0.501484 8.69997C0.111484 8.30997 0.111484 7.67997 0.501484 7.28997L7.09148 0.699971C7.48148 0.309971 8.11148 0.309971 8.50148 0.699971C8.89148 1.08997 8.89148 1.72997 8.50148 2.11997L3.62148 6.99997H14.7915Z" fill="white"/>
</svg>
