<svg width="34" height="34" viewBox="0 0 34 34" fill="none" xmlns="http://www.w3.org/2000/svg">
<g clip-path="url(#clip0_3_2478)">
<path d="M24.7509 9.06842L21.7175 6.17842C21.5581 6.02967 21.4731 5.83842 21.4731 5.63654V5.31248C21.4731 5.17967 21.4519 5.04686 21.42 4.91936C22.0628 4.65373 22.5144 4.06404 22.5144 3.37873V1.86467C22.5144 0.929668 21.6909 0.175293 20.6762 0.175293H13.005C11.9956 0.175293 11.1775 0.934981 11.1775 1.86467V3.37873C11.1775 4.04811 11.6025 4.62186 12.2134 4.89279C12.1762 5.03092 12.155 5.16904 12.155 5.31248V5.67904C12.155 5.85967 12.0753 6.04561 11.9425 6.18904L9.15875 9.11092C8.81875 9.47748 8.63281 9.92904 8.63281 10.3806V31.9387C8.63281 33.0756 9.74844 34 11.1191 34H22.8863C24.2569 34 25.3725 33.0756 25.3725 31.9387V10.4231C25.3672 9.92373 25.1494 9.44029 24.7509 9.06842ZM10.1203 15.6453C11.7459 15.3212 14.9706 14.9175 16.6653 15.7037C17.4569 16.0703 18.4131 16.2084 19.38 16.2084C21.0853 16.2084 22.8384 15.794 23.8744 15.5019V17.5047C22.3337 17.9775 19.1728 18.6894 17.4994 17.9084C15.3053 16.8884 11.73 17.3825 10.115 17.68V15.6453H10.1203ZM12.665 1.86467C12.665 1.60436 12.8456 1.40779 13.005 1.40779H20.6816C20.8463 1.40779 21.0322 1.60436 21.0322 1.86467V3.37873C21.0322 3.63904 20.8463 3.83561 20.6816 3.83561H13.005C12.8456 3.83561 12.665 3.63904 12.665 3.37873V1.86467ZM10.3328 9.87061L12.8828 7.19311H15.8844C16.2934 7.19311 16.6281 6.91686 16.6281 6.57686C16.6281 6.23686 16.2934 5.96061 15.8844 5.96061H13.6106C13.6266 5.87029 13.6372 5.77467 13.6372 5.68436V5.31248C13.6372 5.22748 13.6531 5.14248 13.6797 5.06811H19.9431C19.975 5.14779 19.9856 5.22748 19.9856 5.31248V5.63123C19.9856 6.13592 20.2034 6.61404 20.6019 6.98592L23.6353 9.87592C23.7947 10.0247 23.8797 10.2159 23.8797 10.4178V14.1844C22.3869 14.6625 19.1144 15.4222 17.3931 14.62C15.2522 13.6212 11.7831 14.0728 10.1203 14.3703V10.37C10.1203 10.2 10.2 10.014 10.3328 9.87061ZM22.8809 32.7675H11.1191C10.5719 32.7675 10.1203 32.3956 10.1203 31.9387V18.9444C11.7034 18.6203 15.0397 18.174 16.7769 18.9815C17.5684 19.3481 18.5247 19.4862 19.4969 19.4862C21.1438 19.4862 22.8331 19.1037 23.885 18.8115V31.944C23.8797 32.3956 23.4334 32.7675 22.8809 32.7675Z" fill="#37474F"/>
</g>
<defs>
<clipPath id="clip0_3_2478">
<rect width="34" height="34" fill="white"/>
</clipPath>
</defs>
</svg>
