<svg width="34" height="34" viewBox="0 0 34 34" fill="none" xmlns="http://www.w3.org/2000/svg">
<path d="M12.75 9.03125H21.25V12.2188H12.75V9.03125Z" fill="#A1A2A3"/>
<path d="M22.8438 9.03125H11.1562V5.84375C11.1562 5.56196 11.2682 5.29171 11.4674 5.09245C11.6667 4.89319 11.937 4.78125 12.2188 4.78125H21.7812C22.063 4.78125 22.3333 4.89319 22.5326 5.09245C22.7318 5.29171 22.8438 5.56196 22.8438 5.84375V9.03125Z" fill="#C7C7C6"/>
<path d="M12.75 9.03027V12.2178H14.3352V9.03027H12.75ZM12.2188 4.78027C11.937 4.78027 11.6667 4.89221 11.4674 5.09147C11.2682 5.29073 11.1562 5.56098 11.1562 5.84277V9.03027H12.7415V5.84277C12.7415 5.56098 12.8534 5.29073 13.0527 5.09147C13.252 4.89221 13.5222 4.78027 13.804 4.78027H12.2188Z" fill="white"/>
<path d="M24.9688 29.2188H9.03125C8.46766 29.2188 7.92716 28.9949 7.52865 28.5964C7.13013 28.1978 6.90625 27.6573 6.90625 27.0938V16.4688C6.90625 15.3416 7.35402 14.2606 8.15105 13.4635C8.94808 12.6665 10.0291 12.2188 11.1562 12.2188H22.8438C23.9709 12.2188 25.0519 12.6665 25.849 13.4635C26.646 14.2606 27.0938 15.3416 27.0938 16.4688V27.0938C27.0938 27.6573 26.8699 28.1978 26.4714 28.5964C26.0728 28.9949 25.5323 29.2188 24.9688 29.2188Z" fill="#C7C7C6"/>
<path d="M6.90625 16.4688H27.0938V26.0312H6.90625V16.4688Z" fill="#F7F7F7"/>
<path d="M11.1562 12.2178C10.0291 12.2178 8.94808 12.6655 8.15105 13.4626C7.35402 14.2596 6.90625 15.3406 6.90625 16.4678V27.0928C6.90625 27.6564 7.13013 28.1969 7.52865 28.5954C7.92716 28.9939 8.46766 29.2178 9.03125 29.2178H10.6165C10.0529 29.2178 9.51241 28.9939 9.1139 28.5954C8.71538 28.1969 8.4915 27.6564 8.4915 27.0928V16.4678C8.4915 15.3406 8.93927 14.2596 9.7363 13.4626C10.5333 12.6655 11.6143 12.2178 12.7415 12.2178H11.1562Z" fill="white"/>
<path d="M16.9998 18.5928L15.4454 20.1493H15.4433C15.1354 20.4572 14.9256 20.8495 14.8407 21.2765C14.7557 21.7036 14.7993 22.1463 14.9659 22.5486C15.1325 22.9508 15.4147 23.2947 15.7767 23.5366C16.1388 23.7785 16.5644 23.9077 16.9998 23.9077C17.4353 23.9077 17.8609 23.7785 18.223 23.5366C18.585 23.2947 18.8672 22.9508 19.0338 22.5486C19.2004 22.1463 19.244 21.7036 19.159 21.2765C19.074 20.8495 18.8643 20.4572 18.5564 20.1493L16.9998 18.5928Z" fill="#ABDFE7"/>
<path d="M24.9688 29.75H9.03125C8.32694 29.7494 7.65164 29.4694 7.15362 28.9714C6.6556 28.4734 6.37556 27.7981 6.375 27.0938V16.4688C6.375 13.8327 8.52125 11.6875 11.1562 11.6875H22.8438C25.4798 11.6875 27.625 13.8327 27.625 16.4688V27.0938C27.625 28.5589 26.435 29.75 24.9688 29.75ZM11.1562 12.75C9.10563 12.75 7.4375 14.4181 7.4375 16.4688V27.0938C7.4375 27.9724 8.15256 28.6875 9.03125 28.6875H24.9688C25.8474 28.6875 26.5625 27.9724 26.5625 27.0938V16.4688C26.5625 14.4181 24.8944 12.75 22.8438 12.75H11.1562Z" fill="#37474F"/>
<path d="M21.25 12.75H12.75C12.6091 12.75 12.474 12.694 12.3743 12.5944C12.2747 12.4948 12.2188 12.3596 12.2188 12.2188V9.03125C12.2188 8.89035 12.2747 8.75523 12.3743 8.6556C12.474 8.55597 12.6091 8.5 12.75 8.5H21.25C21.3909 8.5 21.526 8.55597 21.6257 8.6556C21.7253 8.75523 21.7812 8.89035 21.7812 9.03125V12.2188C21.7812 12.3596 21.7253 12.4948 21.6257 12.5944C21.526 12.694 21.3909 12.75 21.25 12.75ZM13.2812 11.6875H20.7188V9.5625H13.2812V11.6875Z" fill="#37474F"/>
<path d="M22.8438 9.5625H11.1562C11.0154 9.5625 10.8802 9.50653 10.7806 9.4069C10.681 9.30727 10.625 9.17215 10.625 9.03125V5.84375C10.625 4.96506 11.3401 4.25 12.2188 4.25H21.7812C22.6599 4.25 23.375 4.96506 23.375 5.84375V9.03125C23.375 9.17215 23.319 9.30727 23.2194 9.4069C23.1198 9.50653 22.9846 9.5625 22.8438 9.5625ZM11.6875 8.5H22.3125V5.84375C22.3125 5.55156 22.0734 5.3125 21.7812 5.3125H12.2188C11.9266 5.3125 11.6875 5.55156 11.6875 5.84375V8.5ZM27.0938 26.5625H6.90625C6.76535 26.5625 6.63023 26.5065 6.5306 26.4069C6.43097 26.3073 6.375 26.1721 6.375 26.0312V16.4688C6.375 16.3279 6.43097 16.1927 6.5306 16.0931C6.63023 15.9935 6.76535 15.9375 6.90625 15.9375H27.0938C27.2346 15.9375 27.3698 15.9935 27.4694 16.0931C27.569 16.1927 27.625 16.3279 27.625 16.4688V26.0312C27.625 26.1721 27.569 26.3073 27.4694 26.4069C27.3698 26.5065 27.2346 26.5625 27.0938 26.5625ZM7.4375 25.5H26.5625V17H7.4375V25.5Z" fill="#37474F"/>
<path d="M17 24.4353C16.3009 24.4353 15.6007 24.1697 15.0684 23.6374C14.5571 23.1245 14.27 22.4299 14.27 21.7058C14.27 20.9816 14.5571 20.287 15.0684 19.7741C15.1686 19.6774 15.3028 19.6238 15.4421 19.625C15.5814 19.6262 15.7146 19.6821 15.8131 19.7806C15.9116 19.8791 15.9675 20.0123 15.9687 20.1516C15.9699 20.2909 15.9163 20.4251 15.8196 20.5253C15.5072 20.8388 15.3319 21.2632 15.3319 21.7058C15.3319 22.1483 15.5072 22.5727 15.8196 22.8862C16.1335 23.1981 16.558 23.3731 17.0005 23.3731C17.4431 23.3731 17.8676 23.1981 18.1815 22.8862C18.4939 22.5727 18.6692 22.1483 18.6692 21.7058C18.6692 21.2632 18.4939 20.8388 18.1815 20.5253C18.0847 20.4251 18.0312 20.2909 18.0324 20.1516C18.0336 20.0123 18.0895 19.8791 18.188 19.7806C18.2865 19.6821 18.4197 19.6262 18.559 19.625C18.6983 19.6238 18.8325 19.6774 18.9327 19.7741C19.3162 20.1555 19.5776 20.6423 19.6837 21.1727C19.7898 21.703 19.7359 22.2529 19.5287 22.7525C19.3216 23.2522 18.9706 23.6789 18.5203 23.9785C18.07 24.2782 17.5409 24.4372 17 24.4353Z" fill="#37474F"/>
<path d="M18.5565 20.6815C18.4156 20.6815 18.2803 20.6257 18.1804 20.5264L17.001 19.3449L15.8195 20.5242C15.7187 20.6172 15.5859 20.6675 15.4488 20.6648C15.3118 20.662 15.1811 20.6064 15.0841 20.5095C14.9871 20.4127 14.9313 20.282 14.9283 20.145C14.9254 20.0079 14.9756 19.875 15.0683 19.7741L16.6249 18.2176C16.7245 18.118 16.8596 18.062 17.0005 18.062C17.1414 18.062 17.2765 18.118 17.3761 18.2176L18.9326 19.7741C19.0071 19.8484 19.0579 19.9432 19.0785 20.0463C19.099 20.1495 19.0885 20.2565 19.0482 20.3537C19.0079 20.4509 18.9397 20.5339 18.8522 20.5923C18.7646 20.6506 18.6617 20.6817 18.5565 20.6815Z" fill="#37474F"/>
</svg>
