<svg width="34" height="34" viewBox="0 0 34 34" fill="none" xmlns="http://www.w3.org/2000/svg">
<path d="M6.7206 29.429L6.11098 30.0386C5.82949 30.3208 5.67141 30.7031 5.67141 31.1018C5.67141 31.5004 5.82949 31.8827 6.11098 32.1649L6.31532 32.3693C6.59755 32.6508 6.97989 32.8088 7.3785 32.8088C7.77711 32.8088 8.15946 32.6508 8.44168 32.3693L9.02852 31.7824C14.0391 32.4771 19.3934 32.4703 24.9514 31.7624L25.5583 32.3693C25.6978 32.509 25.8636 32.6197 26.046 32.6952C26.2285 32.7706 26.424 32.8093 26.6215 32.8089C26.8189 32.8092 27.0145 32.7706 27.1969 32.6951C27.3794 32.6197 27.5451 32.5089 27.6847 32.3693L27.889 32.1649C28.1705 31.8827 28.3286 31.5004 28.3286 31.1018C28.3286 30.7031 28.1705 30.3208 27.889 30.0386L27.2794 29.429C29.1184 21.0684 29.1184 12.9315 27.2794 4.57087L27.889 3.96125C28.1705 3.67903 28.3286 3.29668 28.3286 2.89807C28.3286 2.49946 28.1705 2.11712 27.889 1.83489L27.6847 1.63055C27.4024 1.34906 27.0201 1.19098 26.6215 1.19098C26.2229 1.19098 25.8405 1.34906 25.5583 1.63055L24.9715 2.21739C19.9605 1.52243 14.6062 1.52923 9.04858 2.23711L8.44168 1.63021C8.15937 1.34888 7.77706 1.19092 7.3785 1.19092C6.97995 1.19092 6.59764 1.34888 6.31532 1.63021L6.11098 1.83455C5.82949 2.11678 5.67141 2.49912 5.67141 2.89773C5.67141 3.29634 5.82949 3.67869 6.11098 3.96091L6.7206 4.57053C4.88154 12.9315 4.88154 21.0684 6.7206 29.429ZM7.63996 4.04761L6.83246 3.24011C6.74186 3.14934 6.69097 3.02633 6.69097 2.89807C6.69097 2.76982 6.74186 2.6468 6.83246 2.55603L7.0368 2.35203C7.12758 2.26143 7.25059 2.21054 7.37884 2.21054C7.5071 2.21054 7.63011 2.26143 7.72088 2.35203L8.50492 3.13607C8.61678 3.24827 8.77522 3.30131 8.93162 3.28125C14.5804 2.54141 20.0132 2.53495 25.0796 3.26289C25.158 3.27417 25.238 3.26701 25.3132 3.24199C25.3884 3.21696 25.4567 3.17476 25.5127 3.11873L26.2794 2.35203C26.3702 2.26143 26.4932 2.21054 26.6215 2.21054C26.7497 2.21054 26.8728 2.26143 26.9635 2.35203L27.1679 2.55637C27.2584 2.64719 27.3092 2.77019 27.3092 2.89841C27.3092 3.02664 27.2584 3.14964 27.1679 3.24045L26.3604 4.04795C26.2995 4.10869 26.255 4.18385 26.231 4.26644C26.2071 4.34902 26.2044 4.43633 26.2233 4.52021C28.11 12.9179 28.11 21.0826 26.2233 29.4803C26.2044 29.5642 26.2071 29.6515 26.231 29.7341C26.255 29.8167 26.2995 29.8918 26.3604 29.9526L27.1679 30.7601C27.2585 30.8508 27.3094 30.9738 27.3094 31.1021C27.3094 31.2303 27.2585 31.3534 27.1679 31.4441L26.9635 31.6481C26.8728 31.7388 26.7498 31.7898 26.6215 31.7898C26.4932 31.7898 26.3702 31.7388 26.2794 31.6481L25.4954 30.8641C25.4401 30.8089 25.3728 30.7671 25.2987 30.7419C25.2247 30.7168 25.1459 30.7091 25.0684 30.7193C19.4193 31.4591 13.9867 31.4656 8.9204 30.7376C8.76094 30.7145 8.6008 30.7682 8.48724 30.8818L7.72054 31.6481C7.62968 31.7386 7.5067 31.7893 7.3785 31.7893C7.2503 31.7893 7.12732 31.7386 7.03646 31.6481L6.83212 31.4438C6.7416 31.353 6.69077 31.23 6.69077 31.1018C6.69077 30.9735 6.7416 30.8505 6.83212 30.7597L7.63962 29.9522C7.76338 29.8288 7.81506 29.6503 7.77664 29.48C5.88998 21.0823 5.88998 12.9175 7.77664 4.51987C7.79553 4.43602 7.79291 4.34874 7.76901 4.26617C7.74512 4.1836 7.70072 4.10842 7.63996 4.04761Z" fill="#37474F"/>
<path d="M13.3477 13.4294C14.1205 13.832 14.9505 13.9415 15.6267 13.9415C15.9137 13.9415 16.1724 13.9214 16.3876 13.8959V20.5048C14.9263 20.6636 13.7384 21.4935 13.4133 22.6349C13.3918 22.7108 13.3881 22.7906 13.4026 22.8681C13.4171 22.9456 13.4494 23.0187 13.4969 23.0816C13.5444 23.1445 13.6058 23.1956 13.6764 23.2308C13.747 23.2659 13.8247 23.2843 13.9036 23.2843H19.8917C19.9706 23.2843 20.0484 23.266 20.119 23.2309C20.1896 23.1957 20.2511 23.1447 20.2986 23.0818C20.3462 23.0188 20.3785 22.9457 20.393 22.8682C20.4075 22.7906 20.4039 22.7108 20.3823 22.6349C20.0573 21.4935 18.869 20.6636 17.4076 20.5048V16.6139C17.7245 16.6744 18.1271 16.7284 18.5796 16.7284C19.1535 16.7284 19.8006 16.6424 20.4265 16.3762C22.1551 15.6404 23.0027 13.8364 23.038 13.7599C23.0678 13.6953 23.0838 13.6251 23.0848 13.554C23.0859 13.4828 23.0721 13.4122 23.0442 13.3467C23.0163 13.2812 22.9751 13.2223 22.9231 13.1737C22.8711 13.1251 22.8095 13.088 22.7422 13.0646C22.663 13.0371 20.7753 12.3965 19.0461 13.1323C18.363 13.423 17.8197 13.8799 17.4076 14.3318V13.29H17.4053C17.4053 13.2302 17.3971 13.1703 17.376 13.1132C17.3471 13.0343 16.642 11.1698 14.9753 10.3021C13.3086 9.43442 11.3771 9.92674 11.2958 9.94816C11.227 9.96632 11.1628 9.99865 11.1073 10.0431C11.0517 10.0875 11.0061 10.143 10.9732 10.2061C10.9404 10.2692 10.9211 10.3385 10.9166 10.4094C10.912 10.4804 10.9224 10.5516 10.947 10.6183C10.9762 10.6975 11.681 12.5621 13.3477 13.4294ZM19.4456 14.071C20.28 13.716 21.199 13.7786 21.7889 13.8809C21.454 14.3773 20.8614 15.0828 20.0273 15.4378C19.192 15.7934 18.2723 15.7305 17.682 15.6275C18.0149 15.1321 18.6058 14.4283 19.4456 14.071ZM14.789 22.2647C15.2534 21.7961 16.0344 21.4952 16.898 21.4952C17.7616 21.4952 18.5426 21.7961 19.007 22.2647H14.789ZM14.5044 11.2072C15.3085 11.6257 15.8443 12.3751 16.1401 12.8956C15.5438 12.9521 14.6227 12.9432 13.8186 12.5247C13.0145 12.1061 12.4783 11.3564 12.1829 10.8362C12.7789 10.7795 13.6999 10.7886 14.5044 11.2072Z" fill="#37474F"/>
</svg>
