<svg width="200" height="210" viewBox="0 0 200 210" fill="none" xmlns="http://www.w3.org/2000/svg">
<path d="M99.7927 163.17C134.005 163.17 161.74 133.93 161.74 97.86C161.74 61.7903 134.005 32.55 99.7927 32.55C65.5802 32.55 37.8455 61.7903 37.8455 97.86C37.8455 133.93 65.5802 163.17 99.7927 163.17Z" fill="#A8CF7B"/>
<path d="M100.595 80.5637C101.932 81.9731 104.466 81.5861 106.256 79.6994C108.045 77.8127 108.413 75.1407 107.076 73.7313C105.739 72.322 103.204 72.7089 101.415 74.5956C99.6254 76.4823 99.2583 79.1543 100.595 80.5637Z" fill="#5C832F"/>
<path d="M117.819 97.2832C117.685 97.3305 117.555 97.3828 117.423 97.4335C117.555 97.3828 117.686 97.3305 117.819 97.2832Z" fill="#5C832F"/>
<path d="M84.7612 98.2123C83.4797 97.6203 82.1755 97.1068 80.8429 96.7409C79.4449 96.3886 77.9489 96.1856 76.3511 96.1541H67.822V100.419H76.7345C80.2831 100.419 83.8324 102.369 87.5905 104.434C89.8049 105.651 92.0605 106.888 94.3939 107.752C92.1099 103.934 88.9845 100.363 84.7612 98.2123Z" fill="#5C832F"/>
<path d="M124.132 96.1541C121.822 96.1993 119.72 96.5985 117.819 97.2834C117.686 97.332 117.555 97.384 117.423 97.4352C112.291 99.4167 108.615 103.427 106.014 107.743C108.332 106.881 110.572 105.649 112.769 104.437C116.518 102.371 120.059 100.419 123.62 100.419H132.565V96.1541H124.132Z" fill="#5C832F"/>
<path d="M100.601 97.6881C101.938 99.0973 104.472 98.7099 106.261 96.823C108.051 94.936 108.417 92.264 107.08 90.8548C105.743 89.4456 103.209 89.8329 101.42 91.7199C99.6304 93.6068 99.2638 96.2789 100.601 97.6881Z" fill="#5C832F"/>
<path d="M99.5808 88.3522C100.917 86.9427 100.55 84.2707 98.7602 82.3843C96.9703 80.4978 94.4359 80.1112 93.0993 81.5208C91.7627 82.9303 92.1301 85.6023 93.9199 87.4887C95.7097 89.3752 98.2442 89.7618 99.5808 88.3522Z" fill="#5C832F"/>
<path d="M100.197 126.008C95.7409 126.008 91.4117 123.749 87.2248 121.562C83.2499 119.487 79.4959 117.528 75.9255 117.528H67.822V113.263H75.9255C80.4425 113.263 84.8033 115.54 89.0201 117.741C92.9634 119.799 96.6875 121.743 100.197 121.743C103.684 121.743 107.365 119.811 111.264 117.766C115.482 115.551 119.844 113.263 124.43 113.263C124.446 113.263 124.46 113.263 124.475 113.263H132.565V117.528H124.469C124.458 117.528 124.447 117.528 124.436 117.528C120.794 117.528 117.039 119.498 113.065 121.584C108.921 123.759 104.635 126.008 100.197 126.008Z" fill="#5C832F"/>
<path d="M100.197 117.528C95.7409 117.528 91.4117 115.268 87.2248 113.082C83.2499 111.007 79.4959 109.048 75.9255 109.048H67.822V104.783H75.9255C80.4425 104.783 84.8033 107.059 89.0201 109.261C92.9634 111.319 96.6875 113.263 100.197 113.263C103.684 113.263 107.365 111.331 111.264 109.286C115.482 107.071 119.844 104.783 124.43 104.783C124.446 104.783 124.46 104.783 124.475 104.783H132.565V109.048H124.469C124.458 109.048 124.447 109.048 124.437 109.048C120.794 109.048 117.04 111.018 113.065 113.104C108.921 115.279 104.635 117.528 100.197 117.528Z" fill="#5C832F"/>
<path d="M175.388 119.297H24.1977V145.304H175.388V119.297Z" fill="#5C832F"/>
<path d="M74.0509 137.613H75.2978L76.23 135.013H79.7437L80.648 137.613H82.2096L81.4925 135.95L78.5685 127.466L77.692 127.663L74.0509 137.613ZM77.8793 130.402L78.0506 129.797L78.194 130.385L79.3851 133.862H76.6164L77.8793 130.402Z" fill="white"/>
<path d="M90.5436 132.698H89.0656L89.3087 133.815L89.2927 136.461C89.2927 136.461 88.3207 136.722 87.5439 136.722C85.9105 136.722 84.2891 135.147 84.2891 132.698C84.2891 130.598 85.6356 128.599 87.4164 128.599C88.3605 128.599 89.1493 129.01 89.8265 129.75L90.4839 128.721C89.6393 127.906 88.5916 127.482 87.4004 127.482C84.8787 127.482 82.9108 129.75 82.9108 132.849C82.9108 136.083 85.062 137.809 87.2849 137.809C89.1095 137.809 90.5556 137.234 90.5556 137.234L90.5436 132.698Z" fill="white"/>
<path d="M99.993 137.613L97.053 133.501C98.1844 132.943 98.8895 131.838 98.8895 130.658C98.8895 128.617 97.3677 127.663 95.7902 127.663H93.1251L93.3083 129.054V137.613H94.7425L94.599 136.479V133.892C95.4476 133.892 95.6468 133.892 95.8061 133.879L98.3278 137.613H99.993ZM94.599 132.775V128.785H95.5312C96.5949 128.785 97.5271 129.419 97.5271 130.658C97.5271 131.809 96.5949 132.775 95.5312 132.775H94.599Z" fill="white"/>
<path d="M105.1 127.482C102.646 127.482 100.798 129.808 100.798 132.727C100.798 135.525 102.288 137.809 104.913 137.809C107.363 137.809 109.243 135.478 109.243 132.547C109.243 129.645 107.865 127.482 105.1 127.482ZM102.2 132.639C102.2 130.384 103.335 128.557 105.028 128.557C106.718 128.557 107.837 130.384 107.837 132.639C107.837 134.89 106.718 136.722 105.028 136.722C103.335 136.722 102.2 134.89 102.2 132.639Z" fill="white"/>
<path d="M111.494 137.613H116.083L116.37 136.496H112.785V133.077H115.498L115.785 131.96H112.785V128.785H116.215V127.663H111.307L111.494 129.054V137.613Z" fill="white"/>
<path d="M125.278 128.721C124.429 127.906 123.457 127.482 122.266 127.482C119.74 127.482 117.705 129.75 117.705 132.849C117.705 136.083 119.856 137.809 122.079 137.809C124.031 137.809 125.405 136.495 125.405 136.495L125.091 135.373C125.091 135.373 123.613 136.646 122.31 136.646C120.7 136.646 119.083 135.134 119.083 132.698C119.083 130.598 120.358 128.599 122.206 128.599C123.154 128.599 123.943 129.01 124.617 129.75L125.278 128.721Z" fill="white"/>
</svg>
