<svg width="61" height="61" viewBox="0 0 61 61" fill="none" xmlns="http://www.w3.org/2000/svg">
<path d="M37.9394 19.058L19.0864 37.9109L24.3883 43.2127L43.2412 24.3598L37.9394 19.058Z" fill="black"/>
<path d="M46.8061 27.9662L27.9531 46.8191L38.1254 56.9914L56.9784 38.1385L46.8061 27.9662Z" fill="black"/>
<path d="M18.9098 10.1667L12.7081 4.04126L4.04102 12.7083L10.1664 18.8846C9.39399 21.1953 9.28705 23.6766 9.85784 26.0452C10.4286 28.4138 11.6541 30.574 13.3943 32.2792L15.4023 34.2871L34.3123 15.4788L32.3043 13.4708C30.5878 11.7472 28.4311 10.5277 26.0693 9.94504C23.7074 9.36243 21.231 9.43909 18.9098 10.1667ZM13.4452 13.4454C13.191 13.6996 13.0131 14.0046 12.7843 14.2588L11.2085 12.7083L12.7081 11.2088L14.2839 12.7083C14.0043 13.0133 13.6993 13.1913 13.4452 13.4454Z" fill="black"/>
</svg>
