<svg width="54" height="58" viewBox="0 0 54 58" fill="none" xmlns="http://www.w3.org/2000/svg">
<path d="M12.6 47.24V50.1333H10.8V52H16.2V50.1333H14.4V45.3733C15.4157 45.1567 16.3284 44.5836 16.9842 43.7505C17.6399 42.9174 17.9987 41.8754 18 40.8V38.9333C18 38.6858 17.9052 38.4484 17.7364 38.2734C17.5676 38.0983 17.3387 38 17.1 38C16.1793 38.0028 15.2816 38.2988 14.5284 38.848C13.7753 39.3972 13.2029 40.1731 12.8889 41.0707C12.0706 40.2996 11.0056 39.8706 9.9 39.8667C9.66131 39.8667 9.43239 39.965 9.2636 40.14C9.09482 40.3151 9 40.5525 9 40.8V42.6667C9.00131 43.7421 9.36008 44.7841 10.0158 45.6172C10.6716 46.4502 11.5843 47.0234 12.6 47.24ZM14.4 42.6667C14.4007 42.0877 14.574 41.5232 14.8963 41.0505C15.2186 40.5778 15.6739 40.22 16.2 40.0263V40.8C16.1993 41.3789 16.026 41.9435 15.7037 42.4162C15.3814 42.8889 14.9261 43.2467 14.4 43.4404V42.6667ZM10.8 41.8929C11.3261 42.0867 11.7814 42.4444 12.1037 42.9172C12.426 43.3899 12.5993 43.9544 12.6 44.5333V45.3071C12.0739 45.1133 11.6186 44.7556 11.2963 44.2828C10.974 43.8101 10.8007 43.2456 10.8 42.6667V41.8929Z" fill="#A8CF7B"/>
<path d="M37.4514 0.000145854C33.4332 -0.0173701 29.5477 1.54331 26.5262 4.3884C23.5047 7.23349 21.5556 11.1667 21.0459 15.4478C20.4598 15.136 19.8152 14.9718 19.1612 14.9678C18.3343 14.9708 17.5253 15.2265 16.8288 15.7051C16.1323 16.1837 15.577 16.8654 15.2279 17.6705C14.534 17.0606 13.6451 16.7673 12.7521 16.8536C11.8591 16.9398 11.0331 17.3987 10.4516 18.1316C9.98848 17.5546 9.37182 17.1438 8.68469 16.9547C7.99756 16.7657 7.27299 16.8074 6.60862 17.0743C5.94425 17.3412 5.37201 17.8204 4.96903 18.4473C4.56604 19.0743 4.35168 19.8189 4.35482 20.5807C4.35482 20.6247 4.36527 20.6659 4.36701 20.7098C3.84128 20.8487 3.3534 21.1187 2.94292 21.4978C2.53243 21.877 2.21089 22.3547 2.00435 22.8922C1.7978 23.4298 1.71207 24.012 1.75409 24.5917C1.79611 25.1715 1.96471 25.7325 2.24622 26.2292C1.62423 26.3239 1.05481 26.6561 0.64229 27.165C0.229766 27.6738 0.00174911 28.3253 8.00602e-06 29.0001V34.613C8.00602e-06 34.8611 0.0917698 35.099 0.255107 35.2744C0.418444 35.4499 0.639977 35.5484 0.870971 35.5484H1.74193V51.6116C1.74202 51.7346 1.71953 51.8564 1.67574 51.97C1.63195 52.0837 1.56773 52.187 1.48674 52.2739L0.765584 53.0485C0.522176 53.3086 0.329189 53.618 0.197783 53.9587C0.0663759 54.2994 -0.000844384 54.6648 8.00602e-06 55.0336V55.1935C8.00602e-06 55.9379 0.275294 56.6517 0.765305 57.178C1.25532 57.7043 1.91992 58 2.6129 58H2.7627C3.10596 58.001 3.446 57.9289 3.7631 57.7877C4.08021 57.6466 4.36807 57.4392 4.61001 57.1777L5.33117 56.4031C5.49495 56.2284 5.71614 56.13 5.94694 56.129H21.9239C22.1547 56.13 22.3759 56.2284 22.5397 56.4031L23.2608 57.1777C23.5027 57.4392 23.7906 57.6466 24.1077 57.7877C24.4248 57.9289 24.7649 58.001 25.1081 58H25.2579C25.9509 58 26.6155 57.7043 27.1055 57.178C27.5955 56.6517 27.8708 55.9379 27.8708 55.1935V55.0336C27.8719 54.6647 27.8048 54.2993 27.6734 53.9586C27.542 53.6178 27.3488 53.3085 27.1052 53.0485L26.3841 52.2739C26.3031 52.187 26.2389 52.0837 26.1951 51.97C26.1513 51.8564 26.1288 51.7346 26.1289 51.6116V35.5484H26.9999C27.2308 35.5484 27.4524 35.4499 27.6157 35.2744C27.7791 35.099 27.8708 34.8611 27.8708 34.613V32.2527C29.993 33.8731 32.4414 34.9325 35.0167 35.3449C37.592 35.7572 40.2215 35.5109 42.6915 34.6259C45.1614 33.7408 47.402 32.2421 49.231 30.2517C51.06 28.2612 52.4258 25.8351 53.2172 23.1708C54.0087 20.5064 54.2034 17.6791 53.7857 14.9187C53.3679 12.1583 52.3495 9.54272 50.8131 7.28479C49.2768 5.02687 47.2659 3.19031 44.9441 1.9245C42.6223 0.658684 40.0552 -0.00064149 37.4514 0.000145854ZM37.4514 1.87111C39.5958 1.8551 41.7176 2.34307 43.6678 3.30081C45.6181 4.25855 47.3498 5.66288 48.7414 7.41536C50.133 9.16783 51.1509 11.226 51.7238 13.4457C52.2966 15.6653 52.4105 17.9926 52.0574 20.2645L40.964 17.286C40.0982 17.0541 39.2135 16.9125 38.3224 16.8631V11.1324C39.3053 10.9153 40.1885 10.3408 40.8231 9.50581C41.4578 8.67082 41.8049 7.62638 41.8062 6.54851V4.67755C41.8062 4.42945 41.7145 4.1915 41.5511 4.01607C41.3878 3.84063 41.1662 3.74207 40.9353 3.74207C40.0442 3.74487 39.1755 4.04157 38.4467 4.59204C37.7178 5.14251 37.1639 5.92017 36.86 6.8198C36.0681 6.04698 35.0375 5.617 33.9676 5.61303C33.7366 5.61303 33.515 5.71159 33.3517 5.88703C33.1884 6.06247 33.0966 6.30041 33.0966 6.54851V8.41948C33.0979 9.49734 33.4451 10.5418 34.0797 11.3768C34.7143 12.2117 35.5975 12.7862 36.5804 13.0033V16.8687C35.6515 16.9291 34.7304 17.0886 33.8308 17.3449L23.4524 20.3169C23.4891 20.095 23.5103 19.8705 23.516 19.6453C23.514 18.6609 23.2202 17.7029 22.6773 16.9099C22.8665 12.8434 24.5074 9.01165 27.2588 6.21093C30.0103 3.4102 33.6607 1.85592 37.4514 1.87111ZM36.5804 11.066C36.0714 10.8718 35.6307 10.5132 35.3188 10.0394C35.0069 9.56556 34.8392 8.99973 34.8385 8.41948V7.64396C35.3476 7.83815 35.7883 8.19674 36.1002 8.67055C36.412 9.14436 36.5798 9.71019 36.5804 10.2904V11.066ZM38.3224 9.19499V8.41948C38.323 7.83922 38.4908 7.27339 38.8027 6.79959C39.1145 6.32578 39.5552 5.96719 40.0643 5.773V6.54851C40.0636 7.12877 39.8959 7.6946 39.584 8.16841C39.2721 8.64221 38.8314 9.0008 38.3224 9.19499ZM4.86085 22.4947C5.16741 23.0502 5.603 23.5107 6.12498 23.8311C6.64697 24.1516 7.23746 24.3209 7.83867 24.3227V22.4517C7.49415 22.4517 7.15737 22.342 6.87091 22.1364C6.58445 21.9308 6.36119 21.6386 6.22934 21.2967C6.0975 20.9548 6.063 20.5787 6.13022 20.2157C6.19743 19.8528 6.36333 19.5194 6.60695 19.2578C6.85056 18.9961 7.16094 18.8179 7.49884 18.7457C7.83674 18.6735 8.18698 18.7106 8.50528 18.8522C8.82357 18.9938 9.09562 19.2336 9.28703 19.5413C9.47844 19.849 9.5806 20.2107 9.5806 20.5807H11.3225C11.3225 20.0845 11.506 19.6086 11.8327 19.2578C12.1594 18.9069 12.6025 18.7098 13.0644 18.7098C13.5264 18.7098 13.9695 18.9069 14.2962 19.2578C14.6228 19.6086 14.8064 20.0845 14.8064 20.5807H16.5483V19.6453C16.5483 19.0902 16.7015 18.5476 16.9886 18.0861C17.2758 17.6246 17.6838 17.2649 18.1613 17.0524C18.6387 16.84 19.1641 16.7844 19.6709 16.8927C20.1778 17.001 20.6434 17.2683 21.0088 17.6608C21.3742 18.0533 21.6231 18.5533 21.7239 19.0977C21.8247 19.6421 21.7729 20.2064 21.5752 20.7192C21.3774 21.232 21.0425 21.6704 20.6128 21.9787C20.1831 22.2871 19.678 22.4517 19.1612 22.4517V24.3227C19.8337 24.3206 20.4965 24.1504 21.0973 23.8257C21.698 23.501 22.2201 23.0306 22.6224 22.4517H22.645C23.107 22.4517 23.5501 22.6488 23.8768 22.9997C24.2034 23.3506 24.387 23.8265 24.387 24.3227C24.387 24.8189 24.2034 25.2948 23.8768 25.6456C23.5501 25.9965 23.107 26.1936 22.645 26.1936H5.22578C4.79669 26.1919 4.38329 26.0202 4.06482 25.7113C3.74635 25.4024 3.54523 24.9781 3.50002 24.5198C3.4548 24.0615 3.56867 23.6014 3.81979 23.2277C4.07092 22.854 4.44162 22.593 4.86085 22.4947ZM2.6129 28.0646H25.2579C25.4889 28.0646 25.7105 28.1631 25.8738 28.3386C26.0371 28.514 26.1289 28.752 26.1289 29.0001V29.9355H1.74193V29.0001C1.74193 28.752 1.8337 28.514 1.99703 28.3386C2.16037 28.1631 2.3819 28.0646 2.6129 28.0646ZM24.387 37.4194H20.9031V39.2904H24.387V50.5161H20.9031V52.3871H24.5002C24.6185 52.8433 24.843 53.2595 25.1525 53.5967L25.8737 54.3713C25.9547 54.4582 26.0189 54.5615 26.0627 54.6751C26.1065 54.7888 26.129 54.9106 26.1289 55.0336V55.1935C26.1289 55.4417 26.0371 55.6796 25.8738 55.855C25.7105 56.0305 25.4889 56.129 25.2579 56.129H25.1081C24.8773 56.1281 24.6561 56.0296 24.4923 55.8549L23.7712 55.0804C23.5293 54.8188 23.2414 54.6115 22.9243 54.4703C22.6072 54.3292 22.2671 54.257 21.9239 54.2581H5.94694C5.60368 54.257 5.26365 54.3292 4.94654 54.4703C4.62944 54.6115 4.34157 54.8188 4.09963 55.0804L3.37847 55.8549C3.21469 56.0296 2.99351 56.1281 2.7627 56.129H2.6129C2.3819 56.129 2.16037 56.0305 1.99703 55.855C1.8337 55.6796 1.74193 55.4417 1.74193 55.1935V55.0336C1.74184 54.9106 1.76434 54.7888 1.80813 54.6751C1.85191 54.5615 1.91614 54.4582 1.99713 54.3713L2.71828 53.5967C3.02785 53.2595 3.25235 52.8433 3.37063 52.3871H6.96771V50.5161H3.48386V39.2904H6.96771V37.4194H3.48386V35.5484H24.387V37.4194ZM1.74193 33.6775V31.8065H26.1289V33.6775H1.74193ZM37.4514 33.6775C33.9393 33.676 30.5427 32.3305 27.8708 29.8822V29.0001C27.8682 28.326 27.6398 27.6754 27.2274 27.1673C26.8149 26.6592 26.246 26.3275 25.6246 26.2329C26.0206 25.5388 26.1908 24.7231 26.1087 23.9139C26.0266 23.1046 25.6967 22.3475 25.1708 21.7613L34.2794 19.1523C35.0324 18.937 35.803 18.7998 36.5804 18.7425V20.5807H33.0966C32.8656 20.5808 32.6441 20.6794 32.4808 20.8548L30.9941 22.4517H29.6127C29.3818 22.4517 29.1603 22.5503 28.997 22.7258L27.255 24.5968L28.4866 25.9195L29.9733 24.3227H31.3547C31.5856 24.3226 31.8071 24.224 31.9704 24.0486L33.4572 22.4517H36.5804V24.3227H34.8385C34.6075 24.3227 34.386 24.4213 34.2227 24.5968L32.736 26.1936H31.3547V28.0646H33.0966C33.3276 28.0645 33.5491 27.9659 33.7124 27.7905L35.1991 26.1936H36.5804V31.8065H38.3224V26.1936H39.7037L41.1904 27.7905C41.3537 27.9659 41.5752 28.0645 41.8062 28.0646H43.5481V26.1936H42.1668L40.6801 24.5968C40.5168 24.4213 40.2953 24.3227 40.0643 24.3227H38.3224V22.4517H41.4456L42.9324 24.0486C43.0957 24.224 43.3172 24.3226 43.5481 24.3227H44.9295L46.4162 25.9195L47.6478 24.5968L45.9058 22.7258C45.7425 22.5503 45.521 22.4517 45.2901 22.4517H43.9087L42.422 20.8548C42.2587 20.6794 42.0372 20.5808 41.8062 20.5807H38.3224V18.7584C39.0706 18.7988 39.8138 18.9134 40.5424 19.1008L51.6908 22.0943C50.8127 25.4255 48.9476 28.3583 46.3781 30.4485C43.8085 32.5387 40.6747 33.6723 37.4514 33.6775Z" fill="black" fill-opacity="0.71"/>
</svg>
