<svg width="33" height="33" viewBox="0 0 33 33" fill="none" xmlns="http://www.w3.org/2000/svg">
<g clip-path="url(#clip0_2_360)">
<path d="M16.4998 30.25C18.0123 30.25 19.2498 29.0125 19.2498 27.5H13.7498C13.7498 29.0125 14.9735 30.25 16.4998 30.25ZM24.7498 22V15.125C24.7498 10.9037 22.4948 7.37 18.5623 6.435V5.5C18.5623 4.35875 17.641 3.4375 16.4998 3.4375C15.3585 3.4375 14.4373 4.35875 14.4373 5.5V6.435C10.491 7.37 8.24977 10.89 8.24977 15.125V22L6.47602 23.7738C5.60977 24.64 6.21477 26.125 7.43852 26.125H25.5473C26.771 26.125 27.3898 24.64 26.5235 23.7738L24.7498 22Z" fill="#A8CF7B"/>
</g>
<defs>
<clipPath id="clip0_2_360">
<rect width="33" height="33" fill="white"/>
</clipPath>
</defs>
</svg>
