<svg width="45" height="45" viewBox="0 0 45 45" fill="none" xmlns="http://www.w3.org/2000/svg">
<g clip-path="url(#clip0_3_2384)">
<path d="M2370.78 1084.64C2370.51 1084.64 2370.33 1084.82 2370.33 1085.09C2370.33 1085.36 2370.51 1085.54 2370.78 1085.54H2372.71C2372.98 1085.54 2373.16 1085.36 2373.16 1085.09C2373.16 1084.82 2372.98 1084.64 2372.71 1084.64H2370.78ZM2372.71 1086.17H2370.78C2370.51 1086.17 2370.33 1086.34 2370.33 1086.61C2370.33 1086.89 2370.51 1087.07 2370.78 1087.07H2372.71C2372.98 1087.07 2373.16 1086.89 2373.16 1086.61C2373.16 1086.34 2372.98 1086.17 2372.71 1086.17ZM2372.71 1087.65H2370.78C2370.51 1087.65 2370.33 1087.83 2370.33 1088.1C2370.33 1088.37 2370.51 1088.55 2370.78 1088.55H2372.71C2372.98 1088.55 2373.16 1088.37 2373.16 1088.1C2373.16 1087.88 2372.98 1087.65 2372.71 1087.65ZM22.5 1.125C10.71 1.125 1.125 10.71 1.125 22.5C1.125 34.29 10.71 43.875 22.5 43.875C34.29 43.875 43.875 34.29 43.875 22.5C43.875 10.71 34.29 1.125 22.5 1.125ZM30.24 23.76L18.72 31.41C17.73 32.085 16.425 31.365 16.425 30.15V14.805C16.425 13.635 17.73 12.915 18.72 13.545L30.24 21.24C31.14 21.87 31.14 23.13 30.24 23.76Z" fill="#A8CF7B"/>
</g>
<defs>
<clipPath id="clip0_3_2384">
<rect width="45" height="45" fill="white"/>
</clipPath>
</defs>
</svg>
