<svg width="155" height="155" viewBox="0 0 155 155" fill="none" xmlns="http://www.w3.org/2000/svg">
<circle cx="77.5" cy="77.5" r="77.5" fill="#32BEA6"/>
<path d="M99.2666 59.132V53.5962C99.2666 52.0628 98.0321 50.8283 96.4987 50.8283H84.0431C82.5097 50.8283 81.2752 49.5938 81.2752 48.0604C81.2752 46.5269 80.0407 45.2925 78.5073 45.2925H53.5961C49.7625 45.2925 46.6763 41.1406 46.6763 38.3727H84.0431C85.5765 38.3727 86.811 39.6072 86.811 41.1406C86.811 42.674 88.0455 43.9085 89.5789 43.9085H97.8826C102.035 43.9085 104.802 46.6764 104.802 50.8283V59.132" fill="#E4EFF8"/>
<path d="M46.6763 38.3727C46.6763 41.1406 49.7625 45.2925 53.5961 45.2925H78.5073C80.0407 45.2925 81.2752 46.5269 81.2752 48.0604C81.2752 49.5938 82.5097 50.8283 84.0431 50.8283H96.4987C98.0321 50.8283 99.2666 52.0628 99.2666 53.5962V59.132H102.035V50.8283C102.035 49.2949 100.8 48.0604 99.2666 48.0604H86.811C85.2776 48.0604 84.0431 46.8259 84.0431 45.2925C84.0431 43.759 82.8086 42.5245 81.2752 42.5245H56.364C53.7036 42.5245 51.4302 40.5216 50.2713 38.3727H46.6763Z" fill="#C4DCF0"/>
<path d="M92.347 59.1321H110.338C111.872 59.1321 113.106 60.3666 113.106 61.9C113.106 63.4334 111.872 64.6679 110.338 64.6679H92.347C90.8136 64.6679 89.5791 63.4334 89.5791 61.9C89.5791 60.3666 90.8136 59.1321 92.347 59.1321Z" fill="#FFCA28"/>
<path d="M87.3772 86.8113L92.3469 64.6678H99.2666H110.338L118.642 113.02C118.642 116.125 110.897 118.642 101.343 118.642H86.811" fill="#549AD4"/>
<path d="M92.3469 64.6678L87.376 86.8111L86.811 118.642H89.6276L90.1439 89.5791L95.1148 67.4358C100.261 67.4358 104.975 67.4358 110.814 67.4358L110.338 64.6678C104.341 64.6678 98.344 64.6678 92.3469 64.6678Z" fill="#3588CB"/>
<path d="M118.342 111.274C116.861 113.89 109.821 115.874 101.343 115.874H86.8597L86.811 118.642H101.343C110.897 118.642 118.642 116.125 118.642 113.02L118.342 111.274Z" fill="#3588CB"/>
<path d="M54.98 71.5876V86.8112L71.5875 71.5876V86.8112L100.651 86.8112C102.184 86.8112 103.418 88.0456 103.418 89.5791V115.874C103.418 117.408 102.184 118.642 100.651 118.642H41.1405C39.607 118.642 38.3726 117.408 38.3726 115.874V86.8112L54.98 71.5876Z" fill="#FFCA28"/>
<path d="M41.1405 84.2729L38.3726 86.8111V115.874C38.3726 117.408 39.607 118.642 41.1405 118.642H100.651C102.184 118.642 103.418 117.408 103.418 115.874H43.9084C42.375 115.874 41.1405 114.64 41.1405 113.106V84.2729Z" fill="#ECB200"/>
<path d="M44.2893 93.731C44.0778 93.731 43.9082 93.9006 43.9082 94.1121V98.8856C43.9082 99.0972 44.0778 99.2667 44.2893 99.2667H54.5987C54.8102 99.2667 54.9798 99.0971 54.9798 98.8856V94.1121C54.9798 93.9005 54.8102 93.731 54.5987 93.731H44.2893ZM60.8968 93.731C60.6853 93.731 60.5157 93.9006 60.5157 94.1121V98.8856C60.5157 99.0972 60.6853 99.2667 60.8968 99.2667H71.2062C71.4177 99.2667 71.5873 99.0971 71.5873 98.8856V94.1121C71.5873 93.9005 71.4176 93.731 71.2062 93.731H60.8968ZM44.2893 104.803C44.0778 104.803 43.9082 104.972 43.9082 105.184V109.957C43.9082 110.169 44.0778 110.338 44.2893 110.338H54.5987C54.8102 110.338 54.9798 110.169 54.9798 109.957V105.184C54.9798 104.972 54.8102 104.803 54.5987 104.803H44.2893ZM60.8968 104.803C60.6853 104.803 60.5157 104.972 60.5157 105.184V109.957C60.5157 110.169 60.6853 110.338 60.8968 110.338H71.2062C71.4177 110.338 71.5873 110.169 71.5873 109.957V105.184C71.5873 104.972 71.4176 104.803 71.2062 104.803H60.8968Z" fill="#E4EFF8"/>
<path d="M44.2893 93.731C44.0778 93.731 43.9082 93.9006 43.9082 94.1121V98.8856C43.9082 99.0972 44.0778 99.2667 44.2893 99.2667H54.5987C54.8102 99.2667 54.9798 99.0971 54.9798 98.8856V96.4989H47.0572C46.8457 96.4989 46.6761 96.3292 46.6761 96.1177V93.731H44.2893ZM60.8968 93.731C60.6853 93.731 60.5157 93.9006 60.5157 94.1121V98.8856C60.5157 99.0972 60.6853 99.2667 60.8968 99.2667H71.2062C71.4177 99.2667 71.5873 99.0971 71.5873 98.8856V96.4989H63.6647C63.4531 96.4989 63.2836 96.3292 63.2836 96.1177V93.731H60.8968ZM44.2893 104.803C44.0778 104.803 43.9082 104.972 43.9082 105.184V109.957C43.9082 110.169 44.0778 110.338 44.2893 110.338H54.5987C54.8102 110.338 54.9798 110.169 54.9798 109.957V107.57H47.0572C46.8457 107.57 46.6761 107.401 46.6761 107.189V104.803L44.2893 104.803ZM60.8968 104.803C60.6853 104.803 60.5157 104.972 60.5157 105.184V109.957C60.5157 110.169 60.6853 110.338 60.8968 110.338H71.2062C71.4177 110.338 71.5873 110.169 71.5873 109.957V107.57H63.6647C63.4531 107.57 63.2836 107.401 63.2836 107.189V104.803L60.8968 104.803Z" fill="#C4DCF0"/>
<path d="M79.8913 97.8828H95.1148C95.8815 97.8828 96.4988 98.5001 96.4988 99.2668V117.258C96.4988 118.025 95.8815 118.642 95.1148 118.642H79.8913C79.1246 118.642 78.5073 118.025 78.5073 117.258V99.2668C78.5073 98.5001 79.1246 97.8828 79.8913 97.8828Z" fill="#E4EFF8"/>
<path d="M79.8913 97.8828C79.1246 97.8828 78.5073 98.5001 78.5073 99.2668V100.651H92.3469C93.1136 100.651 93.7308 101.268 93.7308 102.035V118.642H95.1148C95.8815 118.642 96.4987 118.025 96.4987 117.258V99.2668C96.4987 98.5001 95.8815 97.8828 95.1148 97.8828H79.8913Z" fill="#C4DCF0"/>
<path d="M78.5073 115.874V117.258C78.5073 118.025 79.1246 118.642 79.8913 118.642H95.1148C95.8815 118.642 96.4987 118.025 96.4987 117.258V115.874H78.5073Z" fill="#C4DCF0"/>
<path d="M92.347 59.1321C90.8136 59.1321 89.5791 60.3666 89.5791 61.9C89.5791 63.4334 90.8136 64.6679 92.347 64.6679H110.338C111.872 64.6679 113.106 63.4334 113.106 61.9H95.1149C93.5815 61.9 92.347 60.6655 92.347 59.1321Z" fill="#ECB200"/>
<path d="M46.6738 36.9888C45.9137 36.9888 45.2961 37.6072 45.2952 38.3673C45.2931 40.2657 46.231 42.1928 47.6766 43.7923C49.1222 45.3919 51.1853 46.6738 53.6017 46.6738H78.5074C79.2657 46.6738 79.886 47.2725 79.886 48.0631C79.886 50.3393 81.7428 52.2123 84.046 52.2123H96.4989C97.2625 52.2123 97.8775 52.811 97.8775 53.6017V57.7481H92.3524C90.0304 57.7481 88.1925 59.6211 88.1925 61.8973C88.1925 63.5856 89.2157 65.072 90.6955 65.7086L86.2706 85.4245H72.9716V71.5931C72.9716 70.3882 71.5408 69.7574 70.6525 70.5713L56.3588 83.6676V71.5931C56.3588 70.3431 54.9016 69.7809 54.0395 70.5713L37.4402 85.7921C37.153 86.0542 36.9888 86.425 36.9888 86.8139V115.88C36.9888 118.156 38.8293 120.026 41.1379 120.026H101.34C106.239 120.026 110.671 119.391 113.998 118.31C115.662 117.769 117.057 117.131 118.126 116.309C119.194 115.488 120.026 114.369 120.026 113.017V112.906L111.925 65.7329C113.451 65.1242 114.49 63.6134 114.49 61.8973C114.49 59.5995 112.617 57.7481 110.341 57.7481H106.184V50.8337C106.184 48.3746 105.366 46.3263 103.875 44.8357C102.385 43.3451 100.322 42.5273 97.8774 42.5273H89.5818C88.829 42.5273 88.1924 41.9286 88.1924 41.1379C88.1924 38.8617 86.3603 36.9888 84.0459 36.9888L46.6738 36.9888ZM48.357 39.7594H84.046C84.7934 39.7594 85.4245 40.3473 85.4245 41.1379C85.4245 43.4466 87.3056 45.2952 89.5818 45.2952H97.8775C99.6459 45.2952 101.003 45.8667 101.924 46.7873C102.855 47.7187 103.416 49.0654 103.416 50.8337V57.7481H100.645V53.6017C100.645 51.2984 98.8129 49.4417 96.4989 49.4417H84.046C83.2554 49.4417 82.6567 48.7926 82.6567 48.0631C82.6567 45.7869 80.8296 43.9059 78.5074 43.9059H53.6017C52.1845 43.9059 50.7841 43.1118 49.7282 41.9434C49.0822 41.2286 48.6314 40.4736 48.357 39.7594ZM92.3524 60.5187H110.341C111.132 60.5187 111.72 61.1372 111.72 61.8973C111.72 62.6574 111.132 63.2866 110.341 63.2866H92.3524C91.5618 63.2866 90.9604 62.6555 90.9604 61.8973C90.9604 61.1391 91.5618 60.5187 92.3524 60.5187ZM93.4553 66.0546H109.171L117.237 113.039C117.231 113.242 117.11 113.599 116.442 114.112C115.76 114.636 114.619 115.197 113.152 115.674C110.918 116.4 107.969 116.951 104.603 117.15C104.735 116.747 104.806 116.325 104.806 115.88V89.5818C104.806 87.3056 102.96 85.4245 100.646 85.4245H89.1036L93.4553 66.0546ZM53.6017 74.7286V86.8139C53.6005 88.0187 55.0326 88.6496 55.9209 87.8356L70.201 74.7286V86.8139C70.201 87.5793 70.8277 88.1924 71.5931 88.1924H100.645C101.409 88.1924 102.037 88.7912 102.037 89.5818V115.88C102.037 116.632 101.436 117.258 100.645 117.258H97.8775V99.2668C97.8775 97.7465 96.6569 96.4989 95.1204 96.4989H79.886C78.3387 96.4989 77.1181 97.7573 77.1181 99.2668V117.258H41.138C40.3906 117.258 39.7594 116.67 39.7594 115.88V87.4167L53.6017 74.7286ZM44.2951 92.3524C43.276 92.3524 42.5273 93.1552 42.5273 94.1094V98.8884C42.5273 99.8732 43.3409 100.645 44.2951 100.645H54.6018C55.556 100.645 56.3588 99.8967 56.3588 98.8884V94.1094C56.3588 93.1552 55.5942 92.3524 54.6018 92.3524H44.2951ZM60.8945 92.3524C59.9132 92.3524 59.1267 93.1552 59.1267 94.1094V98.8884C59.1267 99.8426 59.9133 100.645 60.8945 100.645H71.2039C72.1963 100.645 72.9716 99.8426 72.9716 98.8884V94.1094C72.9716 93.1552 72.1959 92.3524 71.2039 92.3524H60.8945ZM45.2952 95.1203H53.6017V97.8774H45.2952V95.1203ZM61.8973 95.1203H70.201V97.8774H61.8973V95.1203ZM79.886 99.2668H95.1204V117.258H79.886V99.2668ZM44.2951 103.416C43.2976 103.416 42.5273 104.23 42.5273 105.184V109.955C42.5273 110.909 43.2977 111.72 44.2951 111.72H54.6018C55.556 111.72 56.3588 110.947 56.3588 109.955V105.184C56.3588 104.23 55.5938 103.416 54.6018 103.416H44.2951ZM60.8945 103.416C59.9132 103.416 59.1267 104.23 59.1267 105.184V109.955C59.1267 110.941 59.9402 111.72 60.8945 111.72H71.2039C72.1581 111.72 72.9716 110.947 72.9716 109.955V105.184C72.9716 104.23 72.1963 103.416 71.2039 103.416H60.8945ZM45.2952 106.184H53.6017V108.952H45.2952V106.184ZM61.8973 106.184H70.201V108.952H61.8973V106.184Z" fill="black"/>
</svg>
