<svg width="24" height="24" viewBox="0 0 24 24" fill="none" xmlns="http://www.w3.org/2000/svg">
<path fill-rule="evenodd" clip-rule="evenodd" d="M9.03512 14.2549H8.24512L3.25512 19.2549L4.74512 20.7449L9.74512 15.7549V14.9649L10.0151 14.6849C11.1551 15.6649 12.6351 16.2549 14.2451 16.2549C17.8351 16.2549 20.7451 13.3449 20.7451 9.75488C20.7451 6.16488 17.8351 3.25488 14.2451 3.25488C10.6551 3.25488 7.74512 6.16488 7.74512 9.75488C7.74512 11.3649 8.33512 12.8449 9.31512 13.9849L9.03512 14.2549ZM18.7451 9.75488C18.7451 12.2449 16.7351 14.2549 14.2451 14.2549C11.7551 14.2549 9.74512 12.2449 9.74512 9.75488C9.74512 7.26488 11.7551 5.25488 14.2451 5.25488C16.7351 5.25488 18.7451 7.26488 18.7451 9.75488Z" fill="#37474F" fill-opacity="0.72"/>
</svg>
