<svg width="20" height="18" viewBox="0 0 20 18" fill="none" xmlns="http://www.w3.org/2000/svg">
<path fill-rule="evenodd" clip-rule="evenodd" d="M0.869302 7.1157C0.371957 7.04939 0.000750135 6.62479 0.00146588 6.12305L0.00805085 1.51429C0.00907567 0.796918 0.742804 0.313943 1.40213 0.596645L18.8567 8.08075C19.6646 8.42716 19.6646 9.5725 18.8567 9.9189L1.40213 17.403C0.742804 17.6857 0.00907567 17.2027 0.00805085 16.4854L0.00146588 11.8766C0.000750134 11.3749 0.371956 10.9503 0.869301 10.8839L15.0002 8.99983L0.869302 7.1157ZM9.52021 6.24983L2.00021 5.24983L2.01021 3.02983L9.52021 6.24983ZM2.00021 14.9698V12.7498L9.51021 11.7498L2.00021 14.9698Z" fill="#37474F"/>
</svg>
