<svg width="18" height="18" viewBox="0 0 18 18" fill="none" xmlns="http://www.w3.org/2000/svg">
<path d="M9.73414 2.34199L11.4066 5.69527C11.5273 5.93921 11.7626 6.10896 12.0355 6.14895L15.7819 6.69468C16.0022 6.72557 16.2008 6.84145 16.3339 7.01667C16.467 7.19189 16.5235 7.41202 16.491 7.62833C16.4651 7.80763 16.3806 7.97378 16.2502 8.10174L13.5341 10.7318C13.3351 10.9177 13.2446 11.1895 13.2932 11.455L13.9622 15.1568C14.0361 15.5996 13.7407 16.0207 13.2932 16.1101C13.1101 16.1389 12.9224 16.1089 12.758 16.0247L9.41302 14.2823C9.1653 14.1571 8.87132 14.1571 8.6236 14.2823L5.27859 16.0247C4.86656 16.2438 4.35181 16.0938 4.12791 15.6893C4.04308 15.5274 4.01263 15.3433 4.04094 15.1633L4.70994 11.4616C4.75853 11.196 4.66804 10.9243 4.4691 10.7383L1.75296 8.10831C1.59361 7.95386 1.50391 7.74309 1.50391 7.52313C1.50391 7.30318 1.59361 7.0924 1.75296 6.93795C1.88133 6.80733 2.0513 6.72381 2.23464 6.70125L5.98104 6.15552C6.25399 6.11554 6.48929 5.94578 6.6099 5.70184L8.2222 2.34199C8.36319 2.0554 8.66101 1.87567 8.98486 1.88174H9.08521C9.36702 1.91688 9.61141 2.09021 9.73414 2.34199Z" fill="url(#paint0_linear_2_197)" fill-opacity="0.9"/>
<path d="M9.00491 14.1837C8.85839 14.1827 8.7206 14.231 8.59024 14.2967L5.2558 16.0348C4.85588 16.2364 4.34805 16.0744 4.1279 15.6894C4.04268 15.53 4.01218 15.3478 4.04093 15.1699L4.70993 11.4748C4.75485 11.2075 4.66507 10.9354 4.46909 10.7449L1.74625 8.11492C1.41792 7.79153 1.41792 7.26795 1.74625 6.94456C1.87468 6.81767 2.0412 6.73469 2.22124 6.70786L5.98103 6.15555C6.27076 6.1135 6.47784 5.9533 6.60989 5.70188L8.24322 2.30352C8.36768 2.02707 8.78617 1.83602 9.0116 1.88177C9.00491 2.10532 9.00491 14.0325 9.00491 14.1837Z" fill="url(#paint1_linear_2_197)" fill-opacity="0.9"/>
<defs>
<linearGradient id="paint0_linear_2_197" x1="9.00196" y1="1.88159" x2="9.00196" y2="16.1255" gradientUnits="userSpaceOnUse">
<stop stop-color="#65B010" stop-opacity="0.7"/>
<stop offset="0.133333" stop-color="#65B010" stop-opacity="0.7"/>
<stop offset="0.2375" stop-color="#5D971B" stop-opacity="0.79"/>
<stop offset="0.404167" stop-color="#72C512" stop-opacity="0.7"/>
<stop offset="0.570833" stop-color="#75B413"/>
<stop offset="0.711458" stop-color="#80A90D" stop-opacity="0.89"/>
<stop offset="0.940625" stop-color="#6B8E09" stop-opacity="0.7"/>
</linearGradient>
<linearGradient id="paint1_linear_2_197" x1="5.2558" y1="1.875" x2="5.2558" y2="16.1219" gradientUnits="userSpaceOnUse">
<stop stop-color="#65B010" stop-opacity="0.7"/>
<stop offset="0.133333" stop-color="#65B010" stop-opacity="0.7"/>
<stop offset="0.2375" stop-color="#5D971B" stop-opacity="0.79"/>
<stop offset="0.404167" stop-color="#72C512" stop-opacity="0.7"/>
<stop offset="0.570833" stop-color="#75B413"/>
<stop offset="0.711458" stop-color="#80A90D" stop-opacity="0.89"/>
<stop offset="0.940625" stop-color="#6B8E09" stop-opacity="0.7"/>
</linearGradient>
</defs>
</svg>
