<svg width="64" height="64" viewBox="0 0 64 64" fill="none" xmlns="http://www.w3.org/2000/svg">
<path d="M59 44H58V11C58 10.2044 57.6839 9.44129 57.1213 8.87868C56.5587 8.31607 55.7957 8 55 8H9C8.20435 8 7.44129 8.31607 6.87868 8.87868C6.31607 9.44129 6 10.2044 6 11V44H5C4.20435 44 3.44129 44.3161 2.87868 44.8787C2.31607 45.4413 2 46.2043 2 47V49C2 50.8565 2.7375 52.637 4.05025 53.9497C5.36301 55.2625 7.14348 56 9 56H55C56.8565 56 58.637 55.2625 59.9497 53.9497C61.2625 52.637 62 50.8565 62 49V47C62 46.2043 61.6839 45.4413 61.1213 44.8787C60.5587 44.3161 59.7957 44 59 44ZM35.41 47.24C35.3552 47.4619 35.2262 47.6583 35.0442 47.7966C34.8623 47.9349 34.6384 48.0067 34.41 48H29.56C29.3316 48.0067 29.1077 47.9349 28.9258 47.7966C28.7438 47.6583 28.6147 47.4619 28.56 47.24L28.28 46H35.72L35.41 47.24ZM8 44V11C8 10.7348 8.10536 10.4804 8.29289 10.2929C8.48043 10.1054 8.73478 10 9 10H55C55.2652 10 55.5196 10.1054 55.7071 10.2929C55.8946 10.4804 56 10.7348 56 11V44" fill="black"/>
<path d="M32 15C29.6266 15 27.3066 15.7038 25.3332 17.0224C23.3598 18.3409 21.8217 20.2151 20.9135 22.4078C20.0052 24.6005 19.7676 27.0133 20.2306 29.3411C20.6936 31.6689 21.8365 33.8071 23.5147 35.4853C25.193 37.1635 27.3311 38.3064 29.6589 38.7694C31.9867 39.2324 34.3995 38.9948 36.5922 38.0866C38.7849 37.1783 40.6591 35.6402 41.9776 33.6668C43.2962 31.6935 44 29.3734 44 27C44 23.8174 42.7357 20.7652 40.4853 18.5147C38.2348 16.2643 35.1826 15 32 15ZM36.45 27.89L28.45 31.89C28.3107 31.9614 28.1565 31.9991 28 32C27.8128 32.0006 27.6291 31.9486 27.47 31.85C27.3259 31.7599 27.2071 31.6346 27.1249 31.4859C27.0426 31.3372 26.9997 31.1699 27 31V23C27.0005 22.8295 27.0446 22.662 27.1281 22.5134C27.2115 22.3648 27.3316 22.2399 27.4769 22.1508C27.6222 22.0616 27.7878 22.011 27.9581 22.0039C28.1285 21.9968 28.2978 22.0333 28.45 22.11L36.45 26.11C36.6138 26.1939 36.7513 26.3214 36.8473 26.4784C36.9433 26.6355 36.994 26.816 36.994 27C36.994 27.184 36.9433 27.3645 36.8473 27.5216C36.7513 27.6786 36.6138 27.8061 36.45 27.89Z" fill="black"/>
<path d="M29 29.38L33.76 27L29 24.62V29.38Z" fill="black"/>
</svg>
