<svg width="54" height="61" viewBox="0 0 54 61" fill="none" xmlns="http://www.w3.org/2000/svg">
<path d="M23.2126 45.4122L21.9278 44.009C21.5159 44.4962 21.0227 44.8847 20.4774 45.1518C19.932 45.4189 19.3453 45.5593 18.7516 45.5648C18.1577 45.5788 17.5677 45.4534 17.0182 45.1962C16.4686 44.9391 15.9715 44.5557 15.5576 44.07L14.2907 45.5037C14.8752 46.1726 15.5707 46.7022 16.3365 47.0618C17.1024 47.4214 17.9234 47.6038 18.7516 47.5984C19.5862 47.5959 20.4116 47.401 21.1783 47.0253C21.945 46.6496 22.637 46.1009 23.2126 45.4122Z" fill="#80A90D" fill-opacity="0.89"/>
<path d="M11.7301 48.483C12.6421 49.5245 13.7254 50.3507 14.918 50.9143C16.1107 51.4779 17.3892 51.7677 18.6802 51.7673H18.7516C20.056 51.7532 21.3449 51.4429 22.5428 50.8546C23.7408 50.2662 24.8238 49.4116 25.7285 48.3406L24.4616 46.9272C23.7214 47.8042 22.8351 48.5041 21.8547 48.986C20.8742 49.4678 19.8193 49.722 18.7516 49.7336H18.6802C17.624 49.7326 16.5783 49.494 15.6031 49.0317C14.6279 48.5693 13.7423 47.8922 12.997 47.0391L11.7301 48.483Z" fill="#5C832F"/>
<path d="M9.2052 51.4522C10.4496 52.8695 11.9269 53.9933 13.5528 54.7592C15.1786 55.5252 16.921 55.9183 18.6802 55.916H18.7962C20.5755 55.8984 22.3339 55.4766 23.9685 54.6752C25.6031 53.8739 27.081 52.709 28.3159 51.2489L27.04 49.8152C25.967 51.0899 24.6807 52.1066 23.2571 52.8052C21.8335 53.5037 20.3015 53.87 18.7516 53.8824C17.2069 53.9047 15.6742 53.5712 14.2454 52.902C12.8166 52.2328 11.521 51.2417 10.4364 49.988L9.2052 51.4522Z" fill="#5C832F"/>
<path d="M39.2719 5.07549C36.9412 5.07403 34.6461 5.72708 32.5894 6.97692C30.2331 4.02753 27.1989 1.88934 23.8308 0.804648C20.4627 -0.280042 16.8954 -0.267858 13.5331 0.83982C10.1708 1.9475 7.14792 4.10638 4.80709 7.07181C2.46626 10.0372 0.901058 13.6906 0.288855 17.618C-0.323349 21.5454 0.0419285 25.5896 1.34329 29.2925C2.64465 32.9954 4.83007 36.2088 7.65187 38.5685C10.4737 40.9283 13.819 42.3401 17.3088 42.644C20.7986 42.9478 24.2933 42.1315 27.3969 40.2876C29.3526 39.1265 31.1086 37.5731 32.5805 35.7018C34.3704 36.807 36.3485 37.459 38.3797 37.6134V42.6974H36.5954C36.3587 42.6974 36.1318 42.8046 35.9645 42.9952C35.7972 43.1859 35.7032 43.4446 35.7032 43.7142V56.9328C35.7032 58.0115 36.0792 59.046 36.7484 59.8087C37.4177 60.5715 38.3254 61 39.2719 61C40.2184 61 41.1261 60.5715 41.7954 59.8087C42.4647 59.046 42.8407 58.0115 42.8407 56.9328V43.7142C42.8407 43.4446 42.7467 43.1859 42.5794 42.9952C42.412 42.8046 42.1851 42.6974 41.9485 42.6974H40.1641V37.6134C43.9501 37.4785 47.534 35.6352 50.1274 32.4888C52.7208 29.3425 54.1113 25.1508 53.993 20.836C53.8747 16.5212 52.2573 12.4367 49.4965 9.48105C46.7358 6.52538 43.0579 4.94065 39.2719 5.07549ZM15.9769 9.2139C15.4567 10.1677 15.1811 11.2684 15.1811 12.3914C15.1811 13.5145 15.4567 14.6151 15.9769 15.569L17.8594 18.9346V21.985L15.1829 20.2158C14.4927 19.7664 13.7116 19.53 12.9167 19.53C12.1218 19.53 11.3407 19.7664 10.6505 20.2158L7.15317 22.5646L10.7219 24.9338C11.4135 25.3784 12.1941 25.612 12.9881 25.612C13.7821 25.612 14.5627 25.3784 15.2542 24.9338L17.9308 23.1544V31.116L15.2542 29.3467C14.5641 28.8973 13.783 28.6609 12.9881 28.6609C12.1932 28.6609 11.4121 28.8973 10.7219 29.3467L7.15317 31.7159L10.7219 34.0851C11.4135 34.5296 12.1941 34.7632 12.9881 34.7632C13.7821 34.7632 14.5627 34.5296 15.2542 34.0851L17.9308 32.3056V35.5798C15.3025 35.6405 12.7399 36.5272 10.5256 38.1421C8.33587 36.8233 6.42628 34.9736 4.93122 32.7232C3.43616 30.4727 2.39196 27.8763 1.87207 25.1165C1.35218 22.3567 1.36925 19.5006 1.92206 16.7491C2.47487 13.9976 3.55 11.4176 5.07181 9.1906C6.59362 6.9636 8.52513 5.14371 10.7305 3.85895C12.9358 2.5742 15.3613 1.85581 17.8365 1.75432C20.3116 1.65283 22.7762 2.1707 25.0568 3.27151C27.3375 4.37232 29.3787 6.02931 31.037 8.12591C29.3941 9.44738 28.0147 11.1495 26.9892 13.1208C25.9637 15.0922 25.3152 17.2882 25.0861 19.565C24.1169 19.4197 23.1327 19.6411 22.2847 20.1954L19.6081 21.9647V18.9143L21.4906 15.5486C22.0108 14.5948 22.2865 13.4941 22.2865 12.3711C22.2865 11.248 22.0108 10.1474 21.4906 9.19356L18.7516 4.26204L15.9769 9.2139ZM25.4876 25.4828C25.8018 26.8441 26.2696 28.1532 26.8794 29.3772H26.817C26.1268 28.9278 25.3457 28.6914 24.5508 28.6914C23.756 28.6914 22.9748 28.9278 22.2847 29.3772L19.6081 31.1465V23.1544L22.2847 24.9338C23.257 25.5582 24.3958 25.757 25.4876 25.493V25.4828ZM27.04 38.1625C24.8318 36.5383 22.2714 35.6442 19.6438 35.5798V32.3056L22.3204 34.0851C23.0119 34.5296 23.7925 34.7632 24.5865 34.7632C25.3805 34.7632 26.1611 34.5296 26.8527 34.0851L29.0385 32.6208C29.65 33.3379 30.3191 33.9881 31.037 34.563C29.8754 35.9931 28.5272 37.2106 27.04 38.1726V38.1625ZM39.2719 35.5798C36.8015 35.5798 34.3866 34.7449 32.3325 33.1807C30.2784 31.6165 28.6775 29.3932 27.7321 26.7921C26.7867 24.1909 26.5394 21.3286 27.0213 18.5673C27.5033 15.8059 28.6929 13.2694 30.4397 11.2785C32.1866 9.28769 34.4122 7.93191 36.8351 7.38263C39.2581 6.83336 41.7695 7.11527 44.0519 8.1927C46.3342 9.27014 48.285 11.0947 49.6575 13.4357C51.03 15.7767 51.7626 18.529 51.7626 21.3444C51.7626 25.1199 50.4466 28.7407 48.1041 31.4103C45.7617 34.08 42.5846 35.5798 39.2719 35.5798Z" fill="black" fill-opacity="0.71"/>
</svg>
